<mxfile host="65bd71144e">
    <diagram id="CVPH1pSk6WpUIOQ8xjp9" name="Page-1">
        <mxGraphModel dx="4383" dy="2443" grid="1" gridSize="10" guides="1" tooltips="1" connect="1" arrows="1" fold="1" page="1" pageScale="1" pageWidth="850" pageHeight="1100" background="#ffffff" math="0" shadow="0">
            <root>
                <mxCell id="0"/>
                <mxCell id="1" parent="0"/>
                <mxCell id="13" value="" style="shape=image;verticalLabelPosition=bottom;labelBackgroundColor=default;verticalAlign=top;aspect=fixed;imageAspect=0;image=data:image/png,iVBORw0KGgoAAAANSUhEUgAAAG0AAAB1CAYAAABEfW+gAAAABmJLR0QA/wD/AP+gvaeTAAAJgklEQVR4nO2daWxMXx/HPy21tMHEGGknCP5VWyN2eVQxLaZqiWVKqiISpYNUeJLWzIvqItJ688QSotQLpBJLY4mlqBYlIiK1pRFbIzVKpqqkQSl9Xnh6dXRGZx7Tuffq+SQ3cY+z/M587zn33vO751cQCAQCgUAgkAk/J2n/Av7ta0MELrkJ/Kd5QkcnmfoCpilTpvjEIoFrysvLsdvtLdKdiQZARkZGW9ojcIOMjAyuXr3aIt1fBlsEf4gQTYUI0VSIEE2F/DWirVmzhrNnz8pthk9w+fQoB6mpqdy+fRuATp06odVqGT58OCaTicGDB/+27O7du31hoiJQ3EhbuHAhJSUlnD17lq1bt6LValm7di2lpaVym6YYFCdaEx07dqRv376YzWZmzJjBjh07aGxsBCAxMZG8vDzWr19PbGwsxcXFDtPjiRMnWLlypUN9VVVVREVF8fr1awA+ffrEzp07Wbx4MbNnz8ZqtfLmzRspv7M2lIJiRWvO9OnTqa6uprKyUko7f/48K1eu5MyZM0RFRTnknzZtGi9evODp06dSWmFhISNHjiQ4OBiA7OxsbDYb27Zt4+jRo/Tr14+0tDTpwmitDTlRhWg6nQ6ADx8+SGnz589n+PDh+Pu37EK3bt2IiIjg/PnzADQ2NnLhwgViY2MBsNvtlJaWkpKSQkhICIGBgZjNZmw2GxUVFW61ISeKehBxRdP6W48ePaS03r17/7bMzJkz2bJlC6tXr+b+/fvU1dURGRkJ/JgqAUwmU4tyr1+/ZuDAgW61IReqEO3SpUvodDr69Okjpfn5OXNQ/GTcuHF06tSJmzdvUlpaSlRUFJ07dwYgODgYPz8/Tp48Sffu3V3W0VobcqGscd+MhoYGKisryc3N5eLFiyQnJ3v0I/r5+WE0GikoKODatWvS1Ag/RlBERAQ5OTm8fPmS+vp6Hj16RFpaGl+/fm2L7ngVxY20goICCgoKCAgIQKvVEh4ezq5du1p9T3NGTEwM+fn59O/fnyFDhjj8n9Vq5eDBg6SmpvLu3TsGDBhAQkICAQEB3upKm+Hs0l0EHCkpKfG1LYJf+J9r5jgQ1zxdsdOjwDVCNBUiRFMhQjQVIkRTIUI0FSJEUyEuX66vXLniQzMEznD2zaMrFgGN4lDMcexXgVyONLEiIj/iY9W/CCGaChGiqRAhmgoRoqkQIZoKEaKpECGaChGiqRAhmgoRoqkQIZoKEaKpECGaChGiqRAhmgoRoqkQIZoKEaKpECGaChGiqRAhmgoRoqkQl989GgwGX9oh8ACXoqWnp/vSDoETjh07Rnl5eYt0l6JNnTq1Le0RuIGr/RTinqZChGgqRIimQoRoblBWVsaaNWukc4vF4nQ3i69QtWi+CoG7b98+EhISpPMlS5aQl5fnEGbQl3g9zFJNTQ1xcXFcvnzZrfxKD4H75MkTbDYbEyZMkNJGjBhBQ0MDd+7cYezYsW1uw68oYqQpOQRuaWkpo0ePpmNHx+t77NixstmnCNGaUGII3PLyckJDQ1vYGhYW5vTF1xcoSrTmKCUEbnV1NRqNpoV9Go2G6upqb3fbLbxyT8vJyeHChQsOac3XLpcuXcqKFSs8qvN3IXCd0TwEbnJyshQCNzExEfgZAvf48eNotVoAzGYzs2fPpqKiQoqm+rs2lIJXRLNYLFgsFsDzBxFXKCUErlarpba2tkWZ2tpaevXq5UGPvIfignQ2oZQQuMOGDXOYcpt4/PgxQ4cO9aRLXkNR9zQlhsCNjIykrKyMb9++OaTfuXOHyZMne95JL6CIkabkELhhYWHo9Xpu3brFxIkTAXjw4AEdOnRgzJgxHtvnDUQ4XDcoKytj37590su8xWIhJiamzd1XrsLhKmKkKZ1Ro0Y5rL7k5OTIaI3C7mkC9xCieRlfeATajWh/k0dA9lV+TxAegR+obqQJj4AKRWuiPXsEFC/a9+/fW83T3jwCsq/yv3r1ij179nD37l2CgoKIjo7GaDSi0+koKiriw4cPLFmy5LfttzePgOyr/EVFRRiNRiwWC1VVVZw7d44NGzbQ0NDA+PHjMZvNrdbR3jwCsq+ILFu2TPr3P//8Q3JyMsnJyR7V0d48Aoq/p7miPXsEZB9pniI8AmKV3+t40yMgVvl9hC88Aqq9p7VnhGgq5K8TraamBoPBwPv379u0HTk3Zfx1ovkKOTdleF20mpoaoqOjvV1tm5GUlERhYaFHZVpzwbQ1YqT9H8i9KUN20eLi4hyuTrvdjsFgoK6uDvjpAlm3bh2zZs1i1apVPHz4UMr/9u1brFYrs2bNYvny5Vy7ds2hfqvVisFgICoqivj4eA4dOiRNYVlZWTx+/JitW7diMBike1Rrbhm5N2Wo4j3t9OnTZGVlERYWxqlTp9i4cSP5+floNBqysrLQaDTk5+fz8eNHsrKyHMpmZ2cDP1w8z549IzMzE71eT3R0NJs2bcJmszF//nxiYmIcynz58oVt27bRo0cPDhw4QFpaGrm5ufj5+cm+KcMrIy0nJweDwYDBYGDhwoV8//5dOjcYDOzfv/+P6p87dy4jR44kMDCQ+Ph4dDod169f59WrV9y/f58NGzag0WjQ6/WsWrXKaR3+/v4MGjSIBQsWcOPGDZdtNbllUlJSCAkJITAwELPZjM1mo6Ki4o/64S1kd824Q0hISItzu92O3W6nS5cuDle9Xq93yHvlyhUOHz5MZWUlnz9/BiA8PNxlW+64ZeTelCH79Ni5c2fq6+ulc2c/RtMP2fw8IiICnU7H58+fqa2tlYRrnvfdu3ds3ryZzMxMRo8eTdeuXSkoKKC4uFjK4+/vONm445aRe1OG7A8ioaGhFBYWUldXx5s3b8jNzW2R5/Tp09y7d4+PHz9y5MgR7HY7kyZNQq/XEx4ezvbt26mtraWqqoq9e/dK5err62lsbCQoKIiAgADKy8s5dszx76L27NmT58+fS+4Ud9wycm/KkF20pKQk3r9/j8lkwmq1St7j5syZM4e8vDxMJhNFRUVkZ2dLIys9PZ1Pnz6RkJCA1WrFaDRK5YKDg0lKSmLz5s3Exsaye/fuFj9qfHw8t27dwmg0Sk+PVquVfv36kZqayrx589ixYwcxMTGSW6a5C6YJX27KULxrJjExkcWLFzN9+nS5TXHAF5syhGvGy8i5KUP26VHgOYofaXl5eXKboDjESFMhQjQVIkRTIUI0FeLyQcRV/FyB72j63N0dFgGN4lDM4bjuJhAIBAKBQCAn/wWpPUK+ohTpZwAAAABJRU5ErkJggg==;" vertex="1" parent="1">
                    <mxGeometry x="10" y="17.5" width="109" height="117" as="geometry"/>
                </mxCell>
                <mxCell id="16" value="" style="shape=image;verticalLabelPosition=bottom;labelBackgroundColor=default;verticalAlign=top;aspect=fixed;imageAspect=0;image=data:image/png,iVBORw0KGgoAAAANSUhEUgAAAHwAAACECAYAAABS30/KAAAABmJLR0QA/wD/AP+gvaeTAAAL0UlEQVR4nO2dbUwU1xrHfwvaCkbZCK689Jq02k3B1vjW0otVS01TqlZrizUU+0UQiK0bY1pY0ixvhgCpvSFqaSnbJm1CG0WIJW2U2BYbbG5JNMRKiUEtH3BDyy4VU1rBCtwP3J3sAuu+sOzO7JxfQsKec2bm2fnnzJyZ/57zgEAgEAgEAoFA9mimKfs3cCjQgQhmhf8A/3UsmDNNo38B6Zs2bQpIRILZ4YcffgBowAPBASgpKZndiASzSmpq6rTlYQGOQxBkhOAqQwiuMoTgKkMIrjJkL3h+fj7Hjx8Pdhghg+wFF/gXl8/hSmBwcJDjx49z6dIlAJ566ineeustFixYAIDNZuPIkSNcuXKFxYsXs337do4dO8bp06eJiopyW3/nzh3MZjMXLlzgr7/+4oknnuDgwYMsWbIEgOzsbJ5++mk6Ozvp7u7m7bff5rnnngva+fAERffwkpIShoaGMJvN1NbWYrVaKS8vl+pLS0uZP38+9fX1VFRUcO7cOaft3dVXVFRgsViorq7m5MmTLF26FJPJxPj4uNTmzJkz7Nu3j6+//lr2YoOCBe/r6+Py5cscPHiQ6OhodDodBw4coL29nYGBASwWC52dnRgMBrRaLXFxceTk5Ejbu6u3Wq20tbXxzjvvEBcXR2RkJHl5eVgsFnp6eqR2O3fuZMWKFYSFKeNUKvaS3t/fT3h4OLGxsVJZQkICMCHWyMgIERERREVFSfVxcXHS/zab7b71fX19AKSnp0859m+//cYjjzwCgE6n89M3CgyKFVyn0zE6Okp/f7900i0WCwCLFy9meHiYO3fucPv2bUlUu4gAMTEx962PjY1Fo9Fw+vRpFi5c6DIOjWY6w1G+KOM6NA1xcXGsXLmS6upqBgYG6O/v59ixYyQnJxMdHU1CQgIrVqzg6NGjDA4O0tfXx8cffyxt765ep9Oxfv16KisruXnzJiMjI1y9ehWTycQ///wTjK/sFxTRwxsbG2lsbHQq+/TTTykuLuaDDz4gKysLjUbDk08+yZtvvim1KSoq4v333yczM5OYmBi2bNnC1atXmTt3rkf1hYWFfP755+Tn53Pr1i0efvhhMjMzpXolMt316DXgRGtra6BjmXXa29spLy+nubnZp3ol8X97dDdw0rFcET3cV1pbWwkPD2fdunX09fVRW1vr9Ojkrj4UCWnB165dS3V1NUeOHGHevHls2LDB6dHLXX0ooqpLuppwdUlX7Chd4BtCcJUhBFcZQnCV4XKUfv78+QCGIQgmrwHj4i8k/l6bpK3rHi4ey5SNmIggAITgqkMIrjKE4CpDCK4yhOAqQwiuMoTgKkMIrjKE4CpDCK4yhOAqQwiuMoTgKkMIrjKE4CpDCK4yhOAqQwiuMoTgKkMIrjKE4CpDCK4yXP4u3dXvmgXKxqXgxcXFgYxD4GdKS0unLXcp+LPPPjtbsQgCgCvBxT1cZQjBVYYQXGUIwX2go6OD/fv3S5+NRqM9T5jsEYL7QF1dHZmZmdLn119/HbPZ7LSstlzxu+B//PEHmzdv9ri90lJcXLt2DYvFQnJyslS2cuVK7t27Jy3UL2dED/eStrY21qxZw5w5zk+069ato62tLUhReY6sV2KUY4qLrq4uVq9ePSVWvV6viDVaZd3D5ZjiwmazodVqp8Sq1Wqx2Wx+PgP+xy89vLKykpaWFqcyx3fxe/bsISsry6t92lNcfPnll0RHRwNw4MAB9u7dy8DAAMPDw3R2dkq9VavVkpOTw6FDE5mw7SkuXNXbU1ycOnVK2n9eXh7btm2jp6dHynhgT3ERKvhFcKPRiNFoBCYGbbt27eK7776b0T7lmuIiOjqawcHBKdsMDg4SExPj1XcMBrK9h8s1xUVSUhLXr1+f0q67u5vExEQfv23gkO09XK4pLjZs2EBHRwejo6NO5ZcuXWLjxo3+PxF+RhaCNzY2kpqa6vTX09NDcXExERERZGVlkZubS0xMDIWFhdJ2RUVFDA0NkZmZidFolBw+xxQX96svLCxk6dKl5Ofn8/LLL3P06FHS0tLum+JCr9cTHx9Pe3u7VHblyhXCw8NZu3atn8+M/wmp9dIDleKio6ODuro6ampqgIkxTFpamqws5ZBMgRGsFBerV6+WxIaJpxSloGjBRYoL7wmpS7rSme5W8eKLL7Jp0yav9yVSYCiAQLhwQXfL5Ehubi5nz54N6DED5cKJHi4TAuXCBX3Q5s4RsztWP//8Mzdu3CAhIQGDwcDjjz8O4JPjde7cOX766Sc0Gg1Llixhy5Yt7NmzB41GQ1lZGd3d3VRVVVFVVUViYiI1NTUex+lr8vhAuXBBF7ykpIR58+ZhNpsZHR2lsrKS8vJyp0ed5uZmysrK0Ov1fPXVVxQUFFBfX49Wq6WiooK7d+9SXV1NVFQUn332GSaTidraWum16JkzZygrKyMxMZGwsDBJiLGxMW7cuEFpaSnx8fFs3ryZoqIiLBYLO3fuJC0tzas4Jx9nOlPJEUdTKVAuXFDdMneOmL1s+/btrFq1CoCMjAxaWlq4cOECycnJM3K8wsLCePTRR3nllVf48ccfXY49PI1z8nEcTSW5EFS3zJ0jZj+Rji6X/bPVavXZ8Tp//jxffPEFvb29DA8PA0i3iJnEOZPk8YFy4YJ6SXfniNlxdLnsn9evX++T43Xr1i0OHz5MaWkpa9asISIigsbGRr7//nupTViY81jW0zgnO2veXNID5cIFdZTuzhGz09zczOXLl/n77785ceIEVquVZ555xifHa2RkhPHxcebPn8/cuXPp6uqioaHBqc2iRYv49ddfJUfM0zgnYzQaaW1tdfnneJsLlAsX9EGbu6TvAC+99BJms1kapVdUVEgDHG+TusfGxpKbm8vhw4f5888/0ev1bNy4kV9++UVqk5GRwXvvvUdTUxN6vZ6amhqP4pwJji5cSkoKMDsunOxfrWZnZ7N7926ef/75YIcy6/jThQtJtyzUCIQLJ960qQzZ93Cz2RzsEEKKkO7h2dnZU36LPhklTwz0hZAW3BOUPDHQF1Rtjyp9YqAvqLqHK31ioC8EXfDs7GzMZjMGg4GtW7eSk5NDZ2enVL9r1y6n3ma1WklNTWVoaAiApqYmMjIySEtLw2AwcO3aNaf99/b2cujQIbZu3cobb7zBxYsXpbquri6WL18+JSa9Xk9XV5e/v6osCLrgMPHqdO/evTQ0NJCamkpBQcG0RsJkbt68yYcffsi7775Lc3MzeXl5U0yblpYWcnJyaGpq4oUXXqC8vFy6Pyt9YqAvyGIyoSv7c9u2bfc9bnh4OHPmzCEyMpIHHniApKQkkpKSnNqkp6fz2GOPAbBjxw4++eQTBgYGFDEPbDaQxWRCV/anJ9uZTCY++ugjbt++zbJly3j11VdZtmyZ1MaxBz/44IPAhIECyp8Y6AuyePHiyv6ECZHsAgFTBEpJSSElJYXx8XG+/fZbDAYDTU1Nkrj3Q+kTA31BNvfw6exPgOXLl3P27FmGhob4/fffqa2tlba7ePEiZrMZi8XCvXv3GBsb4+7du4yNjXl0XKVPDPQFWfTw+9mfubm5VFZWkp6eTnx8PDt27JBG7atWreL69esUFBRgs9l46KGHpAmInhAoS1JOBN0eDbb9qYSJgb4g7FEXKHlioC/I4h4uCBxB7+HC/gwsQe/h+/fv55tvvvHrPtVmeXpD0AWfDdRmeXpDyNmjarQ8vSHkergaLU9vCPqgbTIzXV9V6Wuhzjay6+EzXV9VjZanN8jCHrUz0/VVBe6RhT1qZ6brq4I6LU9vkNUl3XGWph3HWZqO66famWytqtHy9AZZCT7T9VVBnZanN8hKcGDG66sqfS3U2cbvj2WLFi3y6v7t6FTZtzeZTC7b63Q6qqqqpM/t7e0sWLCAyMhIqWzfvn3U1dVJHnd9fb00zVftyO453B2erJ+qNsvTGxQnuFg/dWYoTvCFCxdSVFQU7DAUi+wGbYLZRQiuMoTgKkMIrjJcDtpKSkoCGIYgUEwneC9wSvwGLCToDXYAAoFAIBAIBAIf+B+xKs40+6rbOwAAAABJRU5ErkJggg==;" vertex="1" parent="1">
                    <mxGeometry x="-500" y="17.5" width="124" height="132" as="geometry"/>
                </mxCell>
                <mxCell id="18" value="" style="shape=image;verticalLabelPosition=bottom;labelBackgroundColor=default;verticalAlign=top;aspect=fixed;imageAspect=0;image=data:image/png,iVBORw0KGgoAAAANSUhEUgAAAIEAAAB1CAYAAABpo4JfAAAABmJLR0QA/wD/AP+gvaeTAAAL+klEQVR4nO2dfUxTVx/HPwWVF4OQIQiCJoo0kS1GgaHicCtMILyYiTqDmmWZZDAYbJhtlGy8GgNLlkeU6US7JQtxi+EZmTgNbDgxuDiWEWQ6RgT3SleForAxGYyX5w8fru0o9a30Vns+SRPuOefe/lq+Pfec+73n/kAgEAgEAoFAIAAUJspWAzutHYjAapwD/mNYMMNEowXApieffNIqEQmsR1tbGz09PZPKTYkAgMLCwumMRyADhYWFnDlzZlK5gwyxCGwMIQKBEIFAiECAEIEAM7MDuWhvb6eyspKLFy8yNDSEn58fTz/9NElJSTg5Ockd3kOJTfUE33zzDVlZWfj7+7N//36OHTvGW2+9xV9//cW5c+fkDu+hxWZ6gvHxcfbs2UNcXBwvvfSSVL5o0SJSUlKk7b6+Pt59912am5sBCAsL4+WXX8bNzQ2AlJQUgoODaW9vp6Ojg3nz5pGTk8OFCxeoqqrixo0bREZGsnPnThQKhbTPqlWr+O6777h8+TJ+fn5kZWXx2GOPAZCbm8vXX3+NQqFg3rx5xMXFsX37dmn/6upqqqqquH79OkqlkszMTAIDA29bZyvYjAh+/fVXrly5QnR0tNl2hYWFODs7o9FoGB0dpbS0lN27d1NaWiq1aWxspKioiAULFlBeXs5rr71GZGQkH3zwAf39/bzyyiuEhITw1FNPSfvU1NRQXFyMUqnk2LFj5OTkcOTIETw8PCgpKQFgbGyMy5cvU1RUxPz584mKiqKrq4v33nuPPXv2oFQq6ezs5NSpUwQGBpqtsyVs5nTQ19cHwNy5c6dso9PpaG1t5dVXX8XT0xNvb28yMzNpamqit7dXapeUlIRSqcTFxYXo6GgGBwfJyMjAzc0Nf39/goOD6ejoMDr2+vXrWb58Oa6uriQnJ+Pl5cXZs2eN2jg4OBAYGEhSUhJfffUVAI6OjsyYMQNXV1dmzZpFUFAQaWlpt62zJWymJ/Dw8ABAr9fj7e1tsk13dzeOjo74+PhIZX5+fgD09PTg6elpdCyAWbNm4eTkhLOzs1HZ0NCQ0bF9fX0nbU9cZ29oaOCjjz7it99+4++//waQThW+vr7k5eVx8OBB+vv7CQgIYOPGjQQEBJitsyVsRgQLFy7Ex8eHL774gqCgIJNtvL29GR0dpbu7WxKKVqsFwMvL677eX6fTTdpes2YN169fZ9euXRQVFREcHIyLiwuffPIJX375pdQ2PDyc8PBwxsfHqa+vJysri+rqapycnMzW2Qo2czpQKBRkZ2dz8uRJDh06RFdXF0NDQ/z8889oNBoaGhrw9fVl2bJllJWV0dvbS3d3N+Xl5axcuVLqBe6VmpoaWltbuXHjBkePHqWnp4cnnniCoaEhxsfHmT17NjNnzqStrY2qqippv2+//RaNRoNWq2VkZISxsTGGh4cZGxszW2dL2ExPADdH+nv37qWyspL09HSGh4fx8/Nj3bp1rF69GoCCggL279/Pjh07UCgUPP7442RkZNz3eycmJqLRaKTZQUlJiXRaSU1NZdeuXfz5558olUrWrl3L999/D8Dy5cvp7OwkJycHvV6Pv78/BQUFuLi4mK2zJUzdVPIscPT06dPWjkU2UlJS2LJlC+vWrZM7lGnl/1byf4HNhuU2czoQyIcQgcC2xgRyodFo5A5BVkRPIBAiEAgRCBAiEGBmYNjQ0GDFMATWwNSag6l4FhgXr4f2deua9/+ZsiewpyuG9oJYfCKYEiECgRCBQIhAgBCBACECAUIEAoQIBAgRCBAiECBEIECIQIAQgQAhAgFCBAKECAQIEQgQIhAgRCBAiECAEIEAIQIBQgQCzKw7UKlU1oxDICNTiqCgoMCacQisQFVVFW1tbZPKpxSB4dM+BQ8HU60vFWMCgRCBQIhAgBCBLLS0tJCeni5tq9Vqk6uFrYUQgQwcPnyYbdu2Sdtbt25Fo9EwPj4uSzwWf4TdtWvX2Lx5M6dOnbrjfewp5U1HRwdarZaVK1dKZcuWLWNkZITm5mZCQ0OtHpPsPYG9pbxpbGwkODiYGTOMf3+hoaE0NjbKEpOsD7O0x5Q3bW1trFixYtJ3oVQqqampsfRXfEfIKgJ7THmj1+uNknJM4OHhgV6vt8C3evdYRASlpaXU1dUZlRl6D9u3b2fHjh2T9rublDcff/yxlNMgMzOTF154gd7eXqlsIuUNQHR0NLW1tWRkZODs7Iybm5uU8sZQBBMpbwCSk5Opq6vj7NmzJCQkSG3+nfImKirKZFqbiUQd5upsFYuIQK1Wo1argbsbGNpjyhtPT09J/Ib09fWZ/TFMJ7KeDuwx5U1QUBCdnZ2TYrl06RJLly69r89zr8g6O7DHlDcRERG0tLQwOjpqFEtzczNr1669r89zr8j+qHt7S3mjVCqZP38+TU1NhIeHA3DhwgUcHR0JCQm57890L9ht+hs5U960tLRw+PBhDhw4ANwcU8XGxk67fT9V+hvZewJ7ZMWKFZIAAKOprhzIfsVQID92KwKNRvNAZD+zhuNotyJ4ULCG42gTLuLdIBxHyzuOD1RPIBzHm1jacXxgZgfCcbyFpR1HmxfB2NgYDg4OwnE0wNKOo6wuIsDvv//OwYMHOX/+PLNnzyYqKoqYmBi8vLyor6/njz/+YOvWrcJxnEZkdREB6uvriYmJQa1Wo9PpOHnyJNnZ2YyMjBAWFkZaWhogHEdDLO04yn46eO6556S/AwICyMzMJDMzc1I74TjewtKO4wMzOxCO4y0s7TjK3hPcDcJxnB7H0W5dxLvhYXEchYv4gGINx/GBGRMIpg/RE9wBGo1G7hCmFdETmCA9PZ0TJ05Y9Ji2tgjVECECK2Fri1ANsbgIrl27RlRUlKUPOyWpqanU1tZK22+++aZ0Lf/fZGdns3fvXmuFJnE7S1huHrqeYP369Zw5c4aBgQGj8q6uLlpbW0lMTLR6TLa4CNUQ2UWg1+tRq9XEx8fz/PPPU11djUqlor+/H4DBwUHKy8vZsmULCQkJ5ObmcvXqVQCKi4u5dOkSb7/9NiqVivT0dMLCwnB3d+fzzz83ep/PPvuMoKAgFi9eTG5uLiqVisjISJKTk6msrDTbLW/evNnoF9vT04NKpZKEZi5GuGkJL1myZNJxlUqlyaeJWRvZZwdFRUV4e3tz5MgRBgcHKS4uNqovKSlheHiYsrIy3N3d+fDDD8nLy6OiooL8/Hy0Wi0bNmwgNjZW2ic+Pp4TJ06QlJQEwMjICHV1daSmpkrHBNPW771gLkaFQmGTi1ANsUhPUFpaikqlQqVSsXHjRsbGxqRtlUrF+++/b3I/rVbLxYsXycrKwsPDA19fX1588UWpvqenh8bGRl5//XV8fX1xdXUlLS0NrVbLTz/9NGU88fHx/PLLL/zwww/Aze54ZGRk0gM6/2393gv3GqMtIauVrNfrcXFxwd3dXSoztGwnnLtNmzZN2vfKlSssXrzY5HE9PT1ZtWoVx48fZ+nSpRw/fpzo6GjpHkRz1u/dcicx2uIiVENkPR3MnTuXwcFB+vv7JSEYWrY+Pj4oFAo+/fRT5syZY/IYDg6mO7PExEQKCwvZsGED58+fl+zpO7F+/42Tk5PR/QWG/9A7idEWF6EaIuvA0M/Pj0cffZR9+/bR19eHTqfj0KFDUr23tzdr1qyhtLRUso7b29vJy8vjn3/+AeCRRx7hxx9/nGS3TgwQCwoKCAoKYtGiRQC3tX5NsWTJEmpraxkYGODq1atUVFTcVYy2uAjVENlnB/n5+QwMDLBt2zbUarXkjs2cORO4eRPnwoULeeONN3jmmWfYt28fsbGxUn1ycjJNTU3ExMQYXZFTKBQkJCSg0+mMpoU+Pj6S9RsXF8eBAwdu+49ITU2lv7+fTZs2kZubS0REhFH97WI0tIQnkHsRqiE2ZyU3NTWxe/du2Z7fM13ItQjVEJu1kk+fPo2joyOhoaHodDoqKiqIjIyUOyyLY2uLUA2RXQQhISGUlZXxzjvv4OzsTEREhNE0UTD9yC6COXPmkJ+fL3cYdo3sA0OB/AgRCIQIBEIEAswMDKfKlyN4cJlYNncnPAuMi9dD+zJ/jVwgEAgEAoFAYL/8DwPDe0PytDUIAAAAAElFTkSuQmCC;" vertex="1" parent="1">
                    <mxGeometry x="-150" y="17.5" width="129" height="117" as="geometry"/>
                </mxCell>
                <mxCell id="51" style="edgeStyle=orthogonalEdgeStyle;rounded=1;html=1;entryX=0.5;entryY=0;entryDx=0;entryDy=0;strokeColor=#000000;strokeWidth=3;" edge="1" parent="1" source="22" target="34">
                    <mxGeometry relative="1" as="geometry">
                        <Array as="points">
                            <mxPoint x="-185" y="-40"/>
                            <mxPoint x="271" y="-40"/>
                        </Array>
                    </mxGeometry>
                </mxCell>
                <mxCell id="52" style="edgeStyle=orthogonalEdgeStyle;rounded=1;html=1;entryX=0.5;entryY=0;entryDx=0;entryDy=0;strokeColor=#000000;strokeWidth=3;" edge="1" parent="1" source="22" target="32">
                    <mxGeometry relative="1" as="geometry">
                        <Array as="points">
                            <mxPoint x="-185" y="-40"/>
                            <mxPoint x="-269" y="-40"/>
                        </Array>
                    </mxGeometry>
                </mxCell>
                <mxCell id="58" style="edgeStyle=orthogonalEdgeStyle;rounded=1;html=1;strokeColor=#000000;strokeWidth=3;entryX=0.5;entryY=0;entryDx=0;entryDy=0;" edge="1" parent="1" source="22" target="18">
                    <mxGeometry relative="1" as="geometry">
                        <Array as="points">
                            <mxPoint x="-185" y="-40"/>
                            <mxPoint x="-85" y="-40"/>
                        </Array>
                    </mxGeometry>
                </mxCell>
                <mxCell id="59" style="edgeStyle=orthogonalEdgeStyle;rounded=1;html=1;entryX=0.5;entryY=0;entryDx=0;entryDy=0;strokeColor=#000000;strokeWidth=3;" edge="1" parent="1" source="22" target="13">
                    <mxGeometry relative="1" as="geometry">
                        <Array as="points">
                            <mxPoint x="-185" y="-40"/>
                            <mxPoint x="65" y="-40"/>
                        </Array>
                    </mxGeometry>
                </mxCell>
                <mxCell id="60" style="edgeStyle=orthogonalEdgeStyle;rounded=1;html=1;entryX=0.5;entryY=0;entryDx=0;entryDy=0;strokeColor=#000000;strokeWidth=3;" edge="1" parent="1" source="22" target="16">
                    <mxGeometry relative="1" as="geometry">
                        <Array as="points">
                            <mxPoint x="-185" y="-40"/>
                            <mxPoint x="-438" y="-40"/>
                        </Array>
                    </mxGeometry>
                </mxCell>
                <mxCell id="61" style="edgeStyle=orthogonalEdgeStyle;rounded=1;html=1;strokeColor=#000000;strokeWidth=3;entryX=0.5;entryY=0;entryDx=0;entryDy=0;" edge="1" parent="1" source="22" target="25">
                    <mxGeometry relative="1" as="geometry">
                        <Array as="points">
                            <mxPoint x="-185" y="-40"/>
                            <mxPoint x="-571" y="-40"/>
                        </Array>
                    </mxGeometry>
                </mxCell>
                <mxCell id="62" style="edgeStyle=orthogonalEdgeStyle;rounded=1;html=1;entryX=0.5;entryY=0;entryDx=0;entryDy=0;strokeColor=#000000;strokeWidth=3;" edge="1" parent="1" source="22" target="27">
                    <mxGeometry relative="1" as="geometry">
                        <Array as="points">
                            <mxPoint x="-185" y="-40"/>
                            <mxPoint x="-711" y="-40"/>
                        </Array>
                    </mxGeometry>
                </mxCell>
                <mxCell id="68" style="edgeStyle=orthogonalEdgeStyle;rounded=1;html=1;entryX=0;entryY=0.75;entryDx=0;entryDy=0;strokeColor=#000000;strokeWidth=3;" edge="1" parent="1" source="22" target="67">
                    <mxGeometry relative="1" as="geometry">
                        <Array as="points">
                            <mxPoint x="-185" y="-40"/>
                            <mxPoint x="390" y="-40"/>
                            <mxPoint x="390" y="59"/>
                        </Array>
                    </mxGeometry>
                </mxCell>
                <mxCell id="22" value="" style="shape=image;verticalLabelPosition=bottom;labelBackgroundColor=default;verticalAlign=top;aspect=fixed;imageAspect=0;image=data:image/png,iVBORw0KGgoAAAANSUhEUgAAAIUAAABnCAYAAAAuVoG1AAAABmJLR0QA/wD/AP+gvaeTAAAH/ElEQVR4nO3db0hTbxsH8O9WzVYYUUvFFgTZaP1Dp1lPobUVuRQt7ecPzPCVsdJEisoVlC6plKBeBBbNgl5k2bKgwq0o0yQswga6Rqn1ptIgScPSBN2eF3sc7rk3/6ztnGNdHxDc2Tnnvnf4cp+zc227AUIIIYQQQoJA5GXZfwAc5LojhDdNAM6NXjDdy0qLAPyzceNGTnpE+GO32/H161dmubdQAABKSkqC2R8iACUlJWhoaGCWi3noCxE4CgVhUCgIg0JBGBQKwhBUKD59+oTjx48jPT0dqampKCoqQktLC+f90Ol0sFgsHsuOHDkCtVqNV69eMetWV1dz2b2gE1QoioqKIJVKcfnyZVRXVyMzMxNVVVV8d8ttzpw5uHTpEhwOB99dCSqf9ym41tPTg87OThgMBixYsAAAEBcXh7i4OPc6ubm5UKlUePv2Ldrb2xEeHo6ioiK0trbCZDKhv78fGo0GBw8ehEjkull79OhRvHjxAiKRCOHh4UhOTsbu3bvdz+fm5mLdunWw2Wxoa2vDwMAAAKC8vBzl5eVQKpWoqKgAAGi1WjQ0NMBsNiMlJcXr6xirvbt376K2thZGo9G9fldXF7Kzs1FVVYWIiIjAH1g/CCYUc+fOhVwux7Vr15CVlYWoqChIJBJmvcbGRhgMBixatAgXLlzAoUOHoNFocPXqVXz//h2FhYWIjY3Fpk2bAABnzpwBADgcDrx//x4GgwGRkZHYvHmze59msxknT56EUqmEWCyGTqdDeno6tFqtR9sSiQR79uxBRUUFNBoNpFIp07+x2tuyZQsuXryIjo4OREVFAQAsFguio6MFEwhAQKcPkUiE8+fPQyaT4fTp00hJScH+/fvR2NjosV5GRgYUCgWkUim2bt2KgYEB5OfnIzQ0FHK5HCqVCu3t7cz+xWIxli5dioyMDDx//tzjufT0dKxYsQJi8fiHQ6PRICwsDDdv3hxzPW/thYaGYsOGDTCbzQAAp9OJhw8fIjk5edx2uSSYkQIAZDIZCgsLAQD9/f149OgRiouLce7cOURHRwNwjSgjJBIJQkJCMHPmTI9lg4OD7sf19fWoqqrCx48f8evXLwDAypUrPdoNCwubcB9FIhHy8vJw+PBhpKamMs+P1962bdtw6tQp7Nu3Dy0tLfjx4wcSEhIm3D4XBDNS/L9Zs2Zhx44diIiIgM1m82sfPT09KC0tRU5ODmpqalBXV4f8/HwMDw97rDdyfTFivBFj1apViI+PR2Vl5aTbW7NmDSQSCZqammCxWKDRaBASEuLX6wsWwYSiu7sbx44dw+vXr9HX14efP3/i/v37+PLlC5RKpV/7HBwchNPpxOzZszFjxgzY7XaYTKZxt5s3bx4+fPjAhGc0nU6Huro6dHV1Tao9kUiEpKQk1NTU4NmzZ4I7dQACOn3IZDKkpaXhxo0bePfuHYaHhyGXy6HX6xEbG+vXPiMiIqDT6VBaWoq+vj4oFAokJibizZs3Y26XlZWFs2fP4s6dO1AoFO53H6MtXLgQ27dvx+3btyfdnlarxfXr17F48WIsW7bMr9cWTN4+ZPMvgOqnT59y3RfCsf+Vzm8DyBy9XDCnDyIcFArCoFAQBoWCMCgUhEGhIAwKBWH4vHlVX1/PYTcIH7x958OXfwE46e+v+WPu+/scKeiO5p+PvgxEJoxCQRgUCsKgUBAGhYIwKBSEQaEgDAoFYVAoCINCQRgUCsKgUBAGhYIwKBSEQaEgDAoFYVAoCINCQRgUCsKgUBAGhYIwKBSEQaEgDJ/f+1Cr1Vz2gwiIz1AUFxdz2Q/CA5PJBLvdziz3GYqRX6wlfy5f3xemawrCoFAQBoWCMCgUAmG1WpGXl+d+rNfrvX4jnAsUCoEwGo3Izs52P961axcqKyvhdDo570vAQ/Ht2zePuTTGQ1NEAe3t7fj8+TPWrl3rXrZ69WoMDQ2hubk5YO1MFO8jBU0R5ZrYRqVSYfp0zzsEcXFxzHwnXOD1B9tpiijXFFF2ux0xMTHMfhUKBe7duxeAIz05vIaCpohyTRHV3d3tMbnN6OPT3d3tx5H9PQE5fZSVlUGtVkOtVmPnzp1wOBzux2q1GleuXPG6HU0RJUwBGSn0ej30ej0A14VmZmYmnjx5MqFtaYooYP78+ejt7WX229vbC5lMNuF+BgrvF5qj/a1TRC1fvhwdHR1Mm21tbX7PivQ7eA0FTRHlkpCQAKvVyrTd3NyMxMTEibzsgOL1QpOmiHJRKBSIjIzEy5cvsX79egBAa2srpk2b5vdx+B00XZRAWK1WGI1Gdxj1ej20Wm1QP8Lga7oowUws97eLiYnxGJ3Kysp464ugLjSJMFAopqBgV1QpFFNQsCuqvFdJJ4MqqtxUVKfUSEEVVW4qqlPm3QdVVLmrqAo+FA6HA2KxmCqqHFZUea2SAkBnZydOnDiBtLQ0ZGVlobKy0l1YevDggbsySRVV7vBeJX38+DGSkpKg1+vR1dWF2tpaHDhwAENDQ4iPj8fevXvd61JFlZuKKu+nj5ycHPf/S5YsQUFBAQoKCsbdbqSieuvWLdhsNncoJmOkwmkwGKBSqSCVSt2VztECXVEdq73RFdXGxkZeKqpT5t0HVVRduKio8j5STBRVVF24qKhSlXQKClRFlaqkf5BgV1SnzDUF4Q6FgjAoFIRBoSAMCgVhUCgIg0JBGPQ7moTh7Y6mHMB6rjtCePMRQBPfnSCEEEIIIX+B/wJM3lMcWoztbgAAAABJRU5ErkJggg==;" vertex="1" parent="1">
                    <mxGeometry x="-252" y="-180" width="133" height="103" as="geometry"/>
                </mxCell>
                <mxCell id="25" value="" style="shape=image;verticalLabelPosition=bottom;labelBackgroundColor=default;verticalAlign=top;aspect=fixed;imageAspect=0;image=data:image/png,iVBORw0KGgoAAAANSUhEUgAAAHUAAABnCAYAAAA+Gg0sAAAABmJLR0QA/wD/AP+gvaeTAAAGFklEQVR4nO3dX0iTexgH8K9piRU2MkPinG42B+0i+odxFlrDiw0yUNyKreimi4mgUBf17mIq3bRuTmFgit50eZhIN4XBhsouQkgWBCN01MVxrTGJDCHUtZ2LDjvObaf57t375/H5gOB+7/bbo1/fd6/vM38CjDHGGGOsoKoCY38AuCN3IUy01wD+3DpQU+BOvwOwX7x4UZaKmHiRSATJZDJvvFCoAIChoaFK1sMkMDQ0hLm5ubzxPQrUwiqMQyWIQyWIXKi9vb148eKF0mUoSvOh/irEUkKm9oNQ9OxXjdxuN7q6umCz2bJjIyMj//uY7dvFzKE1mt9TWT5VhepwOLCwsJC9nUwmYbFYsLa2hvv372NxcREPHz6ExWJBb28vgJ0dfkud4/v373jy5AmuXbuGjo4OeDweJBKJ7PapqSk4nU7YbDb09/djaWlJ0u9DuTRz+B0YGEAsFss7dFZijgcPHmBjYwOPHz/GoUOH8OzZM3i9XoyNjSEWi+Hp06d49OgRjEYjotEogsEgmpubxX5pktNMqHJJJpMIhUKYnJxEQ0MDAKCnpwcdHR34+PEj6urqUFNTg/3792Pfvn0wmUwwmUwKV52LQ90mHo8DAOx2e962z58/w2w2w+v1YnR0FKurq9Dr9eju7oZer5e71KJUFWptbS3W19ezt79+/Zqzfc+e8k8BfjVHU1MTqqqq8Pz5c9TX1xe8j9lshtlsRiaTQSAQQH9/P6amplBbW1t2fVJQ1YmSwWDA9PQ01tbWkEgkMDY2lrP98OHD+PDhA378+CH6OX41x9GjR3HhwgX4fD4sLy9jfX0d79+/h9frxebmJt68eYOJiQnEYjGkUimk02lsbGwgnU6LrklqqgrV7XZjdXUVdrsdHo8Hra2tOdudTifm5+dhtVqzZ647VcocHo8Hx48fx927d9HZ2Ynh4WHYbDbs3bsXp06dwsGDB3Hv3j1cuXIFfr8fg4ODqKurE1VPJRRqkl8F8NfMzIzctbAd+rf1NgnAsXVcVXsqkwaHShCHShCHShCHShCHShCHSlDRy4Szs7MylsHEKPSe32KuAsjwh2Y+/NsDLLqn8hUl9eM3c+8iHCpBHCpBHCpBHCpBHCpBHCpBHCpBHCpBHCpBHCpBHCpBHCpBHCpBHCpBHCpBHCpBHCpBHCpBHCpBHCpBHCpBHCpBRd/3a7FY5KyDSahoqIODg3LWwUTw+/2IRCJ540VDvXTpUiXrYRIo9vdO/JpKEIdKEIdKEIlQ1bCydjgczllsSxCEgn+RJgdNhqrGJdbHx8dx/fr17G2Xy4WJiQlkMhnJnqNUkof65csXtLe3Szaf2+3G9PR0ztjIyAguX75c9DHbt4uZYyeWlpYQi8Vw/vz57NjJkyeRSqVyFqWWiyb3VLUJhUI4c+YMampyf0M8d+4cQqGQ7PUoHiqFJdYjkQgMBkNeHUajseDFgUpT1Xq/22llifWVlRXodLq8OXU6HVZWVkTVXQ5JQvX5fHj16lXO2NZrxzdu3MCtW7ekeKqKoLDE+laShCoIAgRBAPDzRMnhcCAYDEoxtSzKXWK9oaEhbxVx4OfK4keOHKls8QUofvilsMS6yWRCNBrNe8zi4iJOnDhRdv07pfiJEoUl1ltbWxEOh/PmX1hYQFtbm+i6xVI8VApLrBuNRhw7dgzz8/PZ+d69e4fq6mqcPXtWVM3l4OXWJRIOhzE+Pp79v3GCIMBms1W0hVlsuXXFX1OpOH36dM4/AvT5fIrVovjhl0lv14W6Gzo65EPdjR0d1XdpdoI7Oj+R31PVRo6OjqZC5Y5OaVT/K006nS7pUiF3dP6jeJfm06dPGB0dxdu3b3HgwAG0t7fDarWisbERgUAA3759g8vlkqJMSWiho6N4lyYQCMBqtUIQBMTjcbx8+RK3b99GKpVCS0sLenp6pChRMlro6Ch++L1582b2c71ej76+PvT19RW8L3d0SvwaJJlFJtzRKY2mQuWOTmm4S6MAqTo63KVRkUp3dDR1+GWl4VAJ4lAJ4lAJ4lAJ4lAJ4lAJ4nWUCCp0Rek3AGa5C2Gi/Q3gtdJFMMYYY4xpwj9bP413mtjApAAAAABJRU5ErkJggg==;" vertex="1" parent="1">
                    <mxGeometry x="-630" y="17" width="117" height="103" as="geometry"/>
                </mxCell>
                <mxCell id="27" value="" style="shape=image;verticalLabelPosition=bottom;labelBackgroundColor=default;verticalAlign=top;aspect=fixed;imageAspect=0;image=data:image/png,iVBORw0KGgoAAAANSUhEUgAAAIsAAAB1CAYAAAB+gRKWAAAABmJLR0QA/wD/AP+gvaeTAAALt0lEQVR4nO3df0xV9R/H8SciIdjwTkG9t75tgt4lWfMHs301rCtrMFCxgK/D61pbDhgLDJvA/QMYOAcuWoaNJK9bP0abQ8jYarowKWyLLUepEBnFH3olx+8iESP4/kHchHuBc/H+OBfej80N7j2fcz5cXpxfn/fxA0IIIYQQQswhPnZe+y9w0N0dEaqTNPmFhXYW+g+Q+Oyzz7q+O0J1Ojs7aWlpsfuevT3L/4DTFy9edGmnhDrV19dTWFgIdrKxwP3dEd5KwiIUk7AIxSQsQE9PDwaDgf7+fgDS09P57LPPZr2+/fv388UXXzire6ohYVHgQcMzV6gqLNnZ2bzzzjs2r6enp/P++++7v0P/KC8vJy4uzmnrS01N5dy5c05bn7uoKixC3ezdlFO9wcFBzGYzly5d4s8//+TJJ5/ktddeY8WKFQCYTCa+/fZbfHx8WLFiBbGxsezbtw8fn7FbB93d3ZSWlnLlyhVCQkLYvXv3tNtLT08nLi7Ounfp6uqitLSUq1evEhISwq5duzh+/Dhnz55lyZIlANy4cYODBw/y008/sXTpUg4cOEBERARFRUVcv36do0ePcvToUdauXUt5eTk1NTVUVVXR29uLXq8nIyODNWvWuPBTdJxXhqW4uJh79+5x7NgxlixZwgcffEBeXh4VFRX4+PhQXFwMwMjICL/88guFhYXodDqioqIAKCoqQqPRUFlZyZ07dygqKnJo+4WFhSxfvpzKykoGBwfttj9//jyFhYWsWrWKqqoqjhw5Qk1NDfn5+VgsFl544QViYmIAuHnzJu+++y5vvfUWer2etrY2Lly4oLqwqO4wVF1djcFgmPDvxx9/tL7f2dlJQ0MDhw4dQqvVEhgYSFpaGhaLhfb29gnrWrBgAWvWrOHFF1/km2++AeDWrVtcuXKFrKwsNBoNOp2OlJQUxf2zWCxcu3aNzMxMNBoNWq3WbvvExEQef/xx/P39iY+Pp6+vj+7ubrvr9PX1ZeHChQQGBvLQQw8RHh5OWlqa4j65i+r2LAkJCbz66qsTXktPT7d+3dHRAYz9Mib77bffCA0Npb6+no8//pgbN25w9+5dANatWweMhW3RokVoNBprO51Op7h/XV1dBAQEWA83AFqt1ma5+9fv7+8PwNDQkN11arVa8vLyOHHiBP39/YSFhZGQkEBYWJjifrmD6sIyk5UrV+Lj48PZs2cJCgqyeb+3t5fDhw9TWFjIxo0bCQgIoLq6mi+//BKAkJAQ7t69S19fn/UXOh5AJYKDgxkcHKS/v98aGEfaw9geb7ItW7awZcsWRkdHqaurIzMzk5qaGmvQ1EB1h6GZLF++nK1bt1JSUsLNmzcZGhqitbWVvLw8/vrrL4aGhhgdHWXx4sX4+fnR0tJCVVWVtb1Op2PdunW8/fbb9PX10dHRwXvvvad4+4888ghPPPEEZWVls2oPsHTpUn799Vf+/vtvAL777jvMZjMWi4Xh4WFGRka4d+8eIyMjDq3X1bxuzwJjVzsffvgh2dnZ9Pb2smrVKoxGI35+fqxcuZLU1FQOHz7MH3/8gV6vZ9u2bTQ3N1vbFxQUUFpaitFotF4Ntba2Kt5+fn4+b775JkajkeDgYGJjY2ltbcXPz09R++TkZN544w1qamrQ6/WUlZXR1tZGTk4OXV1dPProoxQUFBAQEODwZ+NKUqLgBI2NjRw5coTa2lpPd+WBTVei4JV7Fk+7ePEivr6+RERE0NHRQUVFBdu3b/d0t1xOwjILmzZt4tixY5SWlrJo0SIiIyMduvz2VhKWWQgKCiI/P9/T3XA7r7saEp4jYRGKSViEYhIWodiUJ7j19fVu7IZQi/tvXk425U05l/VGeAvlN+XkDu78dN8dXBtyziIUk7AIxSQsQjEJi1BMwiIUk7AIxSQsQjEJi1BMwiIUk7AIxSQsQjEJi1BMwiIUk7AIxSQsQjEJi1BMwiIUk7AIxSQsQjEJi1BMwiIUk7AIxSQsQjF5yExMRflDZgUFBa7tilCl5uZmzpw5Y/e9KcPy3HPPuao/QuWmCoucswjFJCxCMQmLUGzehsUbprpramqaMG9Bbm4uX331lVO34Yh5G5aZqGGqu5MnT2I0Gq3f7927F7PZzOjoqEf64/Sw9PT0WOf1UUKmurPv559/xmKx8PTTT1tfe+qppxgeHuby5ctO65cjZM+iUg0NDWzcuJGFCyfe3YiIiKChocEjffKa/zR5vk1119LSwoYNG2z6pdfrPTZHgNeEZb5NddfV1TVhgqtxGo2Grq4uh/ruLE4JS0lJCefPn5/wmsFgsH69b98+XnnllSnbV1dXU11dbfP65s2bgX+nujtz5gzLli0DIC0tjR07dtDe3k5oaKi1zeSp7qKioqxT3X3yySdoNBo0Gg0pKSm8/vrrin6+8anuxvci4+0PHjw4Ybnxqe4A4uPjOXXqFN3d3QQHB9us095Ud+Hh4Yr64ylOCUtubi65ubnA2AluUlISFy5cUNxeprqznepu2bJl9PX12bTr6+uzGz538IrD0Hyc6i48PJy2tjabNtevX2ft2rUObdtZvOJqaD5OdRcZGUlTU5N1+XGXL19m27ZtDm3bWbwiLDB2tfPYY4+RnZ3N7t27KSsrIyYmxmaqu9jYWMrLy20+0IKCAgYHBzEajZhMJqKjox3afn5+PgMDAxiNRnJzc62j8o5MddfY2Eh0dDTp6emsX7+ehx9+mJycHHbu3ElVVdWEqe70ej06nY7GxkbrOq5evYqvry+bNm1yqO/OItPezZI7prpramri5MmTlJeXA2PnhjExMS4tH5Fp75zAE1PdbdiwwRoUGLvq9CQJi0Lzdaq7+3nNOYsn9fT0EB8fz4EDB6itrSU4OJjQ0NBZT9DtrSPUEhYnmC8j1B4fdXaEjFDb564RatmzzAHuGqGekye4MkI9xtkj1KoPy8jIiN1b5dOREeoxzh6h9vio861btzhx4gTff/89ixcvJioqiujoaEJCQqirq+P3339n79691uVlhNpzI9QeH3Wuq6sjOjqa3NxcOjo6+Pzzz8nKymJ4eJjNmzeTlpY2YXkZofbcCLXHD0MvvfSS9euwsDAyMjLIyMiY9fpkhPpfzh6hnnNXQzJC/S9nj1DPubCAjFCDa0aoZdTZDbxphFpGnd1sro5QS1hcYK6OUEtYXCAoKIj8/HxPd8Pp5twJ7uQH3l1FbQ+tu8OcC4u7qO2hdXfwqhIFV3C0HADU+dC6O8ieZRbU+NC6O3g8LElJSRP+Gjs7OzEYDAwMDABjJYhms5nMzEzi4uJISUnh2rVr1uW7u7sxmUzExcXx8ssv8/XXX09Yv8lkwmAwsH37dpKTk/noo4+sh4r7ywEMBoP1HGRwcJDjx4+zZ88eduzYgclk4vbt29Z1trS0sHr1apufRa/X09LS4rwPR2W84mqotraWoqIi9Ho9n376KTk5OVRWVqLRaGYsJ5iuHMFeOcB4m+lKHNT40Lo7OGXPUlJSgsFgwGAwkJCQwMjIiPV7g8HAqVOnHmj9u3btYv369QQGBpKcnExISAiXLl2ylhNkZWWh0WjQ6XRT3s+YXI4wlfESh0OHDqHVagkMDCQtLQ2LxUJ7e/sD/RzezuMlCkpMHuLXarV0dnYqKieYrhzBHiUlDmp8aN0dPH4Y8vf3n1DHYe+XMHmIv6Ojg61bt85YTjBTOQLYlgPMVOIAqPKhdXfw+Anu6tWrOXfuHAMDA9y+fZuKigqbZWpra/nhhx+4c+cOp0+fprOzk2eeeWbGcoKZyhHAthxgphIHUOdD6+7g8bCkpqbS399PYmIiJpOJyMhIm2V27tyJ2WwmMTGRuro6iouLrXuS6coJlJQjTC4HgOlLHECdD627g+pLFPbv38+ePXt4/vnnPd2VCTzx0Lo7SImCC6jtoXV38PhhSHgP1e9ZzGazp7sg/iF7FqGYhEUoJmERiklYhGJTnuDW19e7sRtCLZqbm6d8T6bqFVOxlw0hhBBCCCHmjv8D8abdYA6SH40AAAAASUVORK5CYII=;" vertex="1" parent="1">
                    <mxGeometry x="-780" y="17" width="139" height="117" as="geometry"/>
                </mxCell>
                <mxCell id="32" value="" style="shape=image;verticalLabelPosition=bottom;labelBackgroundColor=default;verticalAlign=top;aspect=fixed;imageAspect=0;image=data:image/png,iVBORw0KGgoAAAANSUhEUgAAALEAAAB1CAYAAAABUABnAAAABmJLR0QA/wD/AP+gvaeTAAASMklEQVR4nO3df0xTVxvA8W/5IYJTiYUqgr5RQhVwxCnqYOpwRjFi3FTcopj9MacQEHWLA5wBBqYKuinxB4riH5opUUZjnM7hUFjwx8zmmLEjgm6LgYKDMhBElAF9/+ClL1hKwQntZeeTNMF7ek+fnj4cTu99vBcEQRAEQRAEQRAESZN1sy0A+HigAxGEXroB7Om8wa6bJ40DQt98880BiUgQequ4uJjq6mqj7d0lMQCfffZZf8YjCH322Wef8f333xttt7FALILwUokkFiRPJLEgeSKJBcmTZBJHRkZy4cIFS4chWAmTRycsISYmhh9//BGAIUOGIJfL8fX1JTQ0lEmTJhmel56e3us+w8PDWbZsGYsWLXrp8b6I8vJyMjIy0Gg0tLS04OPjQ1hYGH5+fpYOTbKsbiZesWIF+fn5XLhwgdTUVORyOVFRURQWFlo6tJciNjYWR0dHjhw5wunTp1m5ciWnTp2ydFiSZlUzcWd2dnaMGzeOiIgI6uvr2bdvH7Nnz0YmkxEZGUlISAghISEAqNVqsrOzqa2tRalUEh0djZeXF8nJyZSWlpKamkpqaire3t6kp6ezdetWfvjhB2QyGaNHj2bx4sWsWbMGmaz9BOaHH35IYGAgGo2GkpISRo0axaZNm/D39wfgyZMnHDt2jOvXr/P48WOCgoKIiopi6NChNDU1kZmZydWrV2lsbOTVV19l8+bNjB49mtraWioqKkhKSsLV1RUAf39/Q79Aj/v3JjZTYwFQV1fHgQMHuHXrFgAzZ85kw4YNDB8+3ND366+/jkajobS0lC1btlBXV2eyP2thdTNxdxYsWIBOp6OsrMyorby8nEOHDrFt2zbOnTtHREQEly9fBiAhIQGlUklsbCz5+fmGZcjOnTvJz88nLy+P5ORkcnNzuXLlSpd+c3NzWb9+PWq1muDgYFQqFXq9HgCVSsW9e/dISUkhKyuLSZMmUVRUZOhbq9WSlpbGmTNnGD9+PPHx8ej1epydnfHw8OD48eMUFxfT3Nxs9H562t9cbD2NBbSfLHj8+DGZmZlkZGRQXV2NSqXq8voXL15k3bp1nD9/HqVS2WN/1kISSdwxa9XX1xu12draYmdnh5OTE0OGDMHHx4eIiIhe9WtjY4OXlxfLly/n2rVrXdpCQ0OZPHkyDg4OvP3229TV1VFTU0NVVRXXr18nNjaW//znP7zyyissWbKEgIAAqqurKSws5JNPPsHNzQ0nJyciIiLQarX88ccfyGQy9u7di4uLCzt27CAkJIQNGzYYlkrm9jcXW09jUVlZye3bt9m8eTNyuRyFQkF0dDQ3b96kpqbG0PeyZcvw9fXFxsbmH43tQLLa5URnHefLR44cadTm5uZGfHw8hw8f5tGjR3h6erJixQo8PT1N9ldQUMCpU6coKyvj6dOnAEyZMqXLc5ydnQ0/Ozg4APDs2TNqamqwsbFh7NixRv1WVlYC7Un2vIcPHzJx4kRcXFzYtGkT0L4suXTpEomJiezZswcbGxuz+/cUm7u7u8mxqKqqwtbWljFjxhj2dXd3B9rHVy6XA6BQKAztLzK2liCJJP7uu+9wdXXFw8Oj2/bAwEACAwPR6/Xk5eWxceNG1Go1Dg4OhsToUFtby/bt20lKSmLatGk4OjqSk5NjtJwwZcyYMbS1tVFRUWFIgs5tMpmMs2fPMmLECLN9OTk58c4773DmzBk0Gg0LFy7s0/7dMTUWCoWC1tZWqqqqDImq1WqB//+lAwzfC8z11/HLYw2sdjnR0tJCWVkZGRkZXLp0iejoaKMBBvjpp5/IzMxEq9XS0tJCW1sbzc3NtLW1ATBq1Ch+//13WltbgfYZS6/XM2zYMOzt7SkuLiY7O7vXcSkUCgICAti1axcPHjygsbGR8+fPc+PGDRQKBW+88QYpKSmUl5fz7Nkz7t69S3x8PH///Tc6nY5PP/2Un3/+mYaGBhobG/n66695+PAh3t7eZvc3p6excHNzw8/Pj7S0NMOyaP/+/cyaNcswC/d1bK2F1c3EOTk55OTkYG9vj1wuZ8qUKRw8eLDLceLOpk6dyv3794mNjUWn0+Hh4UFiYiKOjo4ArFq1it27d6NWq1EqlaSnpxMeHs727dtpaGhAqVQyd+5cfv31117HuG3bNo4ePUpMTAxNTU0EBQURGRkJwNatWzlx4gQxMTHU1tYyYcIEwsLCsLe3x8XFhaVLl5KVlUVJSQmtra14eHgQFxfH9OnTze5vjrmxSExM5ODBg6xduxaZTMaMGTOIiop64f6sRXdF8e8Cp/Pz8wc6FkHo0f9KMb8CVnbebrXLCUHoLZHEguSJJBYkTySxIHkiiQXJE0ksSJ5IYkHyTJ7sKCgoGMAwBMG87q45Ycq7gF48xMNKH0Y1AiZnYnHGTrA24uIpwqAlkliQPJHEguSJJBYkTySxIHkiiQXJE0ksSJ5IYkHyRBILkieSWJA8kcSC5IkkFiRPJLEgeSKJBckTSSxInkhiQfJEEguSJ5JYkDyRxILkiSQWJE8ksSB5IokFyRNJLEieyetOzJs3byDjEIQXZjKJExMTBzIOQTArOzub4uJio+0mkzgoKKg/4xGEPjN1fUCxJhYkTySxIHkiiQXJE0ks9FlRUZHh5pMAcXFx3V6tcqBIJokjIyO5cOGCpcMQgKNHjxIWFmb49+rVq8nMzESv11sknpd+W9y//vqLlStXcvny5V49PyYmhh9//BGAIUOGIJfL8fX1JTQ0tMutcNPT03sdQ3h4OMuWLWPRokV9C76flJeXk5GRgUajoaWlBR8fH8LCwvDz87N0aH127949tFots2bNMmzz8/OjpaWFW7du4e/vP+AxWcVMvGLFCvLz87lw4QKpqanI5XKioqIoLCy0dGgvRWxsLI6Ojhw5coTTp0+zcuVKTp06ZemwXkhhYSHTpk3Dzq7r/Ofv72+xz8uqblBuZ2fHuHHjiIiIoL6+nn379jF79mxkMhmRkZGEhIQQEhICgFqtJjs7m9raWpRKJdHR0Xh5eZGcnExpaSmpqamkpqbi7e1Neno6W7du5YcffkAmkzF69GgWL17MmjVrkMnab2/94YcfEhgYiEajoaSkhFGjRrFp0ybDzPLkyROOHTvG9evXefz4MUFBQURFRTF06FCamprIzMzk6tWrNDY28uqrr7J582ZGjx5NbW0tFRUVJCUl4erqCrR/4J1nrJ72701spsYCoK6ujgMHDnDr1i0AZs6cyYYNGxg+fLih79dffx2NRkNpaSlbtmyhrq7OZH/FxcW89tprRp+dUqnk3LlzLzcheskqZuLuLFiwAJ1OR1lZmVFbeXk5hw4dYtu2bZw7d46IiAjD8iUhIQGlUklsbCz5+fmGZcjOnTvJz88nLy+P5ORkcnNzuXLlSpd+c3NzWb9+PWq1muDgYFQqlWGdp1KpuHfvHikpKWRlZTFp0iSKiooMfWu1WtLS0jhz5gzjx48nPj4evV6Ps7MzHh4eHD9+nOLiYpqbm43eT0/7m4utp7GA9lsEPH78mMzMTDIyMqiurkalUnV5/YsXL7Ju3TrOnz+PUqnssT+dToezs7PRe3B2dkan0/X8ofaTlzITp6SkkJub22Vb59qLNWvWsHbt2j712TFr1dfXG7XZ2tpiZ2eHk5MTQ4YMwcfHBx8fn171a2Njg5eXF8uXL+fatWvMnz/f0BYaGsrkyZMBePvttzl27Bg1NTW0tbVx/fp1vvzyS9zd3QFYsmQJ0H5Hn8LCQr766ivkcjkAERERLFmyhD/++IOJEyeyd+9eTp48yY4dO/jzzz+ZNGkS7733HnPmzOnV/j3F1tNYVFZWcvv2bbKysgx9R0dH88EHH1BTU2PYtmzZMnx9ff/x2FrKS0niuLg44uLigL5/sTOl43ZPI0eONGpzc3MjPj6ew4cP8+jRIzw9PVmxYgWenp4m+ysoKODUqVOUlZXx9OlTAKZMmdLlOZ1nGAcHBwCePXtGTU0NNjY2jB071qjfyspKoD3Jnvfw4UMmTpyIi4sLmzZtAtqXJZcuXSIxMZE9e/ZgY2Njdv+eYnN3dzc5FlVVVdja2jJmzBjDvh2/hNXV1YYkVigUhnZzYyuXy6mrqzOKta6uDhcXF6PtA8Gq1sSdfffdd7i6uuLh4dFte2BgIIGBgej1evLy8ti4cSNqtRoHBwdDYnSora1l+/btJCUlMW3aNBwdHcnJyTFaTpgyZswY2traqKioMCRB5zaZTMbZs2cZMWKE2b6cnJx45513OHPmDBqNhoULF/Zp/+6YGguFQkFraytVVVWGRNVqtcD//9IBhu8F5vpzcHDAx8eH+/fvG8VQWlqKt7f3C8X/T1nVmrilpYWysjIyMjK4dOkS0dHRRgMM8NNPP5GZmYlWq6WlpYW2tjaam5tpa2sDYNSoUfz++++0trYC7TOWXq9n2LBh2NvbU1xcTHa20e3QTFIoFAQEBLBr1y4ePHhAY2Mj58+f58aNGygUCt544w1SUlIoLy/n2bNn3L17l/j4eP7++290Oh2ffvopP//8Mw0NDTQ2NvL111/z8OFDvL29ze5vTk9j4ebmhp+fH2lpadTU1FBVVcX+/fuZNWuWYRbu69jOmTOHoqIiw9h2uHXrFnPnzu31mL5MVjET5+TkkJOTg729PXK5nClTpnDw4MEux4k7mzp1Kvfv3yc2NhadToeHhweJiYk4OjoCsGrVKnbv3o1arUapVJKenk54eDjbt2+noaEBpVLJ3Llz+fXXX3sd47Zt2zh69CgxMTE0NTURFBRkOGu1detWTpw4QUxMDLW1tUyYMIGwsDDs7e1xcXFh6dKlZGVlUVJSQmtrKx4eHsTFxTF9+nSz+5tjbiwSExM5ePAga9euRSaTMWPGDKKiol64P6VSydixY7l58yaBgYEA3LlzB1tbW8P7GWjG01z7HUVPi5sxCqYUFRVx9OhRw5GfuLg4Fi1a1O/lu/+7GeNXwMrO261iJhak5bXXXutyBjUlJcWC0VjZmlgQXoRIYqFfDUTF26BMYlHxZj0GouLN4lVsfSEq3qRloCreJDcTi4o36RioijfJHp0QFW+i4q2D1c/EHWeKeiIq3v7dFW8Wr2KrqKjg8OHD/PLLLwwbNoz58+cTHByMq6sreXl51NfXs3r16h5fX1S8/bsr3ixexZaXl0dwcDBxcXFUVlbyzTff8NFHH9HS0sLMmTOJiIgw24eoePt3V7xZfE38/vvvG3729PQkOjqa6OjoPvUhKt56bzBWvFn9mtgUUfEmKt46WHwm7itR8SYq3p4nqtiEfvUyK95EFZtgEQNR8SbZNbEgdBBJLEieSOJBytou+tef/tVJPJhLNq3ton/96aUn8V9//dXl9Gx/Cw8P59tvv+2yLSYmhnnz5jFv3jyCg4NZvXo1KpWKkpKSLs9LT083FAm9yOtYK3MlkIPNoJ2JB3vJZk+s8aJ//cnih9h0Oh2ff/45d+7cwdXVlaVLl7J//37Onj3LyJEjeyw9NFVK2dlgLNnsKVawzov+9SeLJ3FSUhIKhYKTJ0/S1NREcnJyl/adO3fS3NxMWloaI0eO5Pjx48THx5ORkUFCQgJarbbX/zNjwYIFXLx4kbKyMsaPH9+lraNMce/evSiVSu7fv8/ly5fx8vIy+To7d+4E2stFf/vtN5KSkhg7dmyX5VRubi5JSUlMmDCB7OxsVCoVarUamUyGSqWioaGBlJQU5HI5BQUFFBUVERAQ0OP71mq1JmMF67zoX3+yaCmmVqtFo9EYZl1nZ2fWr1/Pxx9/DPSudLEvBkvJpqOjo1WUQFoLi5Zi6nQ6HB0du5RQurm5GX7uTeliXwyWks3AwECrKIG0FhZdTri4uNDU1MSjR48MidXxAULvShefL6XsyWAq2bSGEkhrYdGjE+7u7vj6+rJv3z7q6uqorKzkyJEjhvbelB4+X0r5vMFYsmktJZDWwuJf7BISEvjiiy8ICwvDxcWFxYsXc/fuXUNpobnSw+5KKWFwl2xaSwmktbC6UsybN2+iUqkG5aGggWSpi/71J6stxczPz8fW1hZ/f38qKyvJyMjgrbfesnRYkmdtF/3rTxZP4unTp5OWlsbnn3/O0KFDmTNnDuvXr7d0WIKEWDyJR4wYQUJCgqXDECRs0NZOCP8eIokFyRNJLEieSGJB8kx+sSsoKBjAMATBvI7al954F9CLh3hY6aP35/YFQRAEQRAEQRAEafgvHOLZJGDvAzIAAAAASUVORK5CYII=;" vertex="1" parent="1">
                    <mxGeometry x="-357" y="17.5" width="177" height="117" as="geometry"/>
                </mxCell>
                <mxCell id="34" value="" style="shape=image;verticalLabelPosition=bottom;labelBackgroundColor=default;verticalAlign=top;aspect=fixed;imageAspect=0;image=data:image/png,iVBORw0KGgoAAAANSUhEUgAAAMkAAACECAYAAAA6AA+3AAAABmJLR0QA/wD/AP+gvaeTAAAW4ElEQVR4nO3dfUxUV/rA8e+IOgVr1yDyIvxorDqRsTWUIla0trCiVF0FQRvWZhsjCiIoGstAWwQ1VGyN0rXVjp01sWZ1K5VlwSq0utgdty6t1lhHgkprUxneLRhRlzfZP/hxy8i8ocAMcj4JiXPvnXuec53n3nvuPBxAEARBEARBEARBEAS7JTOybDqwob8DEQQ7cRbY2XXBUCMb/R8Q+fLLL/dLRIJgL0pKSqitre223FiSAJCent6X8QiC3UlPT+frr7/utnyIDWIRhAFFJIkgWCCSRBAsEEnyGImLi+OLL76wdRiPHZEkgmCByadbtpCUlMR3331nsGzq1Km89957NoqoQ2lpKQcPHkSn09HU1ISnpyezZ89m8eLFyOXyR95/TEwM4eHhhIaG9kK0vykvL0etVqPT6WhtbUWpVLJs2TKmTJnyyPvuq5jtkV0lCUBERATx8fG2DkPy7bff8s477xAeHs7q1asZM2YMFRUVnDp1irNnz/LKK6/YOkSTVCoVkydPZt++fYwYMYKSkhIOHTrUK0kymNhdkpiyZMkSkpOTeeGFFwCora1l6dKl5OfnU1JSgkql6vaeHTt20NbWZnKdXq8nNzeX/fv3S8vLy8t54403OHToEK6uruzatYt58+axevVqaZtx48YRHR0tvW5oaODDDz/k/PnzAAQEBBAfH8/IkSMBiI6OJjAwEJ1Ox5UrV3B2dmbdunX4+/uzZcsWrl69yvbt29m+fTs+Pj7s2bOH6OhoXnzxRXQ6HVevXmXjxo34+fmZbaer+vp6Kioq2Lx5M2PGjAHA398ff39/APLy8sz23c3NjZycHLKzs6mvr0ehUJCQkMDEiRNNxnzv3j00Gg1nzpzhzp07PPfccyQmJuLm5iYdBz8/P0pLS7l27Rpubm6oVCouXbpEdnY2d+/eJTg4mA0bNiCTGSsGsY3HYkwSEBBAUVGR9LN8+XImTpyIUqk0uy4kJITq6mp0Op20r/z8fPz9/XFzc+OXX36hqqqKOXPmmG0/PT2dxsZGNBoNarWa2tpaMjIyDLYpLCxk1apV5OTkMHfuXDIyMmhvb2fTpk0oFApUKhVFRUXs2bNHes+JEydYuXIlx44dIzg42Kp2Oo0aNQovLy8OHDhASUkJzc3NBust9b28vJy9e/fy9ttvk5eXR2xsLKdOnQIwGfO2bdvQ6/VkZWVx5MgRvL29SU1Npb29XWpDq9USHx9PTk4OSqWSjRs3cuPGDfbv349areabb74x+oWeLdldkhw9epSgoCDp58yZMz16f2FhIQUFBWRmZuLo6Gh2naOjI3PmzCEvLw+AlpYWCgoKWLBgAdBxhQBwcXEx2V5lZSUXL14kMTGR0aNH4+rqSkJCAsXFxdy8eVPaLjIykkmTJiGXy1m0aBENDQ0G640JDw9n8uTJDBkyxOp2OslkMnbt2oWLiwvvvvsu8+fPJz4+Hq1WC2Cx7w4ODgwdOhQnJyeGDx+OUqkkNjbWZKy1tbVotVrefPNNPDw8cHJyIjY2Fr1ez/Xr16XtFi9ejEKhkNq/d+8ea9asYeTIkXh5eeHn58e1a9fMHpf+Zne3W48yJjl37hxqtZqsrCycnZ2tWhcWFsaqVauIj4+nuLgYBwcHpk+fDnScjQHq6upwdXU12mZNTQ0ODg64u7tLyzw9PYGOD87o0aMN9gVIg/2mpiaz/enaprXtdOXi4sK6desAuHv3Ll9++SVpaWns3LkTX19fs3338PAgNTWVjz/+mFu3bjF+/HgiIiIYP3680VgrKyuBjpPBg6qqqnjmmWe6HYfhw4cjl8t54oknDJZZOi79ze6SxBS5XG5w8DrP8p3KysrIyMhg69ateHt7W73u6aefxsfHh4KCArRaLaGhoQwd2nFYvL29cXd356uvvkKpVBqNy9XVlba2NmpqaqQPtV6vB5DGApYMGWL8gt71vvxR23FyciIsLIwjR46g0+nw9fU123eAwMBAAgMDaW9v5+TJk6xdu5acnBzkcnm3mN3d3ZHJZOTm5vLUU09Z1e+Bwu5ut0yZMGECBQUFNDY2Ul1djVqtltZVV1eTkpLC+vXrefbZZw3eZ25dp7CwMA4fPszly5eZP3++tFwmk7F+/XqOHz/Ovn37KC8vp6mpiZ9//hmNRsPp06fx8PBgypQpZGVlcfPmTWpqati9ezfTpk0zenY3xtnZmZ9++om2tjaT2/S0nbq6Ot566y2+//57bt++zZ07d8jPz6eqqgofHx+LfT937hwajQa9Xk9rayv379+nubmZ+/fvG43Z1dWVGTNmkJmZKR2n0tJSUlNTaWlpseo42KsBcyWJiYkhMzOTyMhIxo4dy6JFi6SnPFqtlrq6OtLS0gzes2PHDq5fv25yXeeTspkzZ7J79258fX2lW5hOAQEBfPDBBxw8eJC4uDiam5vx9PQkJCREujVJS0vjo48+YsWKFchkMqZOncqaNWus7ltUVBTvv/8+OTk5KBQKg8F7Vz1px8XFhYULF3L48GGuXLlCW1sbXl5eBk8IzfXd19eXsrIyVCoVdXV1eHl5kZaWJo3zjMWckpLCp59+SlJSEvX19YwbN45ly5YxbNgwq4+FPTL2nG0p8FlRUVF/x2IzLS0tREREkJiYSHBwsK3D6VeDue8P+v9S+c+BJV2XD5jbrb7S3t5Obm4ucrmcWbNm2TqcfjWY+94TA+Z2q6+Ehoby5JNPkpSUZDBoHQwGc997YtAfmcLCQluHYDODue89MehvtwTBEpEkgmCBSBJBsEAkiSBYYHLgfvr06X4MQxBsz9icW2Dmy8Q+jUYQ7Fe3LxNNXkkG0zfuggBicjpBeGgiSQTBApEkgmCBSBJBsEAkiSBYIJJEECwQSSIIFogkEQQLRJIIggUiSQTBApEkgmCBSBJBsEAkiSBYIJJEECwQSSIIFogkEQQLRJIIggUiSQTBApEkgmCBSBJBsEAkiSBYIJJEECwQSSIIFpicdysoKKg/4xAEu2UySR78G4OC8LjLzs6mpKSk23KTSfLKK6/0ZTyCYHdMzX8txiSCYIFIEkGwQCSJIFggkmSAi4uL44svvrB1GL3uwoULxMXFSa+Tk5ONzvjeH0SSCHbpk08+YdmyZdLrP/7xj2g0Gtrb2/s9ll7/E9W//vorS5Ys4dSpU1Ztn5SUxHfffWewbOrUqbz33nu9HVqPlJaWcvDgQXQ6HU1NTXh6ejJ79mwWL16MXC5/5P3HxMQQHh5OaGhoL0T7m/LyctRqNTqdjtbWVpRKJcuWLWPKlCmPvO++ivlB165dQ6/XM23aNGnZlClTaG1t5fz58/j7+/dp+w+yi7/jHhERQXx8vK3DkHz77be88847hIeHs3r1asaMGUNFRQWnTp3i7Nmzdv14XKVSMXnyZPbt28eIESMoKSnh0KFDvZIk/UWr1eLn58fQoYYfT39/f7Ra7eBMElOWLFlCcnIyL7zwAtDxN+2WLl1Kfn4+JSUlqFSqbu/ZsWMHbW1tJtfp9Xpyc3PZv3+/tLy8vJw33niDQ4cO4erqyq5du5g3bx6rV6+Wthk3bhzR0dHS64aGBj788EPOnz8PQEBAAPHx8YwcORKA6OhoAgMD0el0XLlyBWdnZ9atW4e/vz9btmzh6tWrbN++ne3bt+Pj48OePXuIjo7mxRdfRKfTcfXqVTZu3Iifn5/Zdrqqr6+noqKCzZs3M2bMGKDjg9X5ocrLyzPbdzc3N3JycsjOzqa+vh6FQkFCQgITJ040GfO9e/fQaDScOXOGO3fu8Nxzz5GYmIibm5t0HPz8/CgtLeXatWu4ubmhUqm4dOkS2dnZ3L17l+DgYDZs2IBM1vHXCUtKSnj++ee79U+hUJCXl9f9g9LHBuyYJCAggKKiIuln+fLlTJw4EaVSaXZdSEgI1dXV6HQ6aV/5+fn4+/vj5ubGL7/8QlVVFXPmzDHbfnp6Oo2NjWg0GtRqNbW1tWRkZBhsU1hYyKpVq8jJyWHu3LlkZGTQ3t7Opk2bUCgUqFQqioqK2LNnj/SeEydOsHLlSo4dO0ZwcLBV7XQaNWoUXl5eHDhwgJKSEpqbmw3WW+p7eXk5e/fu5e233yYvL4/Y2FjpttlUzNu2bUOv15OVlcWRI0fw9vYmNTXVYOyg1WqJj48nJycHpVLJxo0buXHjBvv370etVvPNN98YDMrr6uoYNWqU0f7V1dWZ/X/pC72SJJmZmQQFBREUFERERAT379+XXgcFBfGXv/zF7PuPHj1qsP2ZM2d61H5hYSEFBQVkZmbi6Ohodp2joyNz5syRzkgtLS0UFBSwYMECoOMKAeDi4mKyvcrKSi5evEhiYiKjR4/G1dWVhIQEiouLuXnzprRdZGQkkyZNQi6Xs2jRIhoaGgzWGxMeHs7kyZMZMmSI1e10kslk7Nq1CxcXF959913mz59PfHw8Wq0WwGLfHRwcGDp0KE5OTgwfPhylUklsbKzJWGtra9Fqtbz55pt4eHjg5OREbGwser2e69evS9stXrwYhUIhtX/v3j3WrFnDyJEj8fLyws/Pj2vXrpk9LrbUK7dbycnJJCcnAz0fuMOjjUnOnTuHWq0mKysLZ2dnq9aFhYWxatUq4uPjKS4uxsHBgenTpwNIZ7C6ujpcXV2NtllTU4ODgwPu7u7SMk9PT6DjgzN69GiDfQHSYL+pqclsf7q2aW07Xbm4uLBu3ToA7t69y5dffklaWho7d+7E19fXbN89PDxITU3l448/5tatW4wfP56IiAjGjx9vNNbKykqg42TwoKqqKp555plux2H48OHI5XKeeOIJg2Vdj8vo0aOlk1VXDQ0NZk9efcWuxyRyudzg4D144MrKysjIyGDr1q14e3tbve7pp5/Gx8eHgoICtFotoaGh0iDR29sbd3d3vvrqK5RKpdG4XF1daWtro6amRvpQ6/V6AGksYMmQIcYv4p335b3RjpOTE2FhYRw5cgSdToevr6/ZvgMEBgYSGBhIe3s7J0+eZO3ateTk5CCXy7vF7O7ujkwmIzc3l6eeesqqfltDqVRSVlbWbfnVq1fx8fHptXasZddjkgkTJlBQUEBjYyPV1dWo1WppXXV1NSkpKaxfv55nn33W4H3m1nUKCwvj8OHDXL58mfnz50vLZTIZ69ev5/jx4+zbt4/y8nKampr4+eef0Wg0nD59Gg8PD6ZMmUJWVhY3b96kpqaG3bt3M23aNKNnd2OcnZ356aefaGtrM7lNT9upq6vjrbfe4vvvv+f27dvcuXOH/Px8qqqqDD5cpvp+7tw5NBoNer2e1tZW7t+/T3NzM/fv3zcas6urKzNmzCAzM1M6TqWlpaSmptLS0mLVcTDmpZde4sKFC92Ozfnz55k1a9ZD7/dh2fWVJCYmhszMTCIjIxk7diyLFi2SnvJotVrq6uq6lfTv2LGD69evm1zX+aRs5syZ7N69G19fX+kWplNAQAAffPABBw8eJC4ujubmZjw9PQkJCZFuTdLS0vjoo49YsWIFMpmMqVOnsmbNGqv7FhUVxfvvv09OTg4KhcJg8N5VT9pxcXFh4cKFHD58mCtXrtDW1oaXl5fBE0Jzfff19aWsrAyVSkVdXR1eXl6kpaVJ4zxjMaekpPDpp5+SlJREfX0948aNY9myZQwbNszqY/EghULB2LFjKS4uJjAwEIBLly7h4OBg0I/+IjOybCnwWVFRUX/H0q9aWlqIiIggMTGR4OBgW4fTrwZC3y9cuMAnn3winTySk5MJDQ3t0++o0tPT+frrrz8HlnRdbtdXkr7S3t5Obm4ucrncJpdvWxoofX/++ecNrq6ZmZk2i2VQJkloaChPPvkkSUlJ3b7VfdwN5r4/rEF5lAoLC20dgk3ExcWxdu1ag8H648DYrdmrr77Kyy+/3Cv7t+unW4Jgjb6uGLZ5FXBPiIphUTH8oP6oGB5wt1uiYrj3iIph6wy4JDFFVAyLiuGuerNi2O7HJJ3f9j4KUTHcnagYtp7Nq4ArKirYtGkTCxcuJCoqCo1Gw40bN/jvf//LsWPH+Nvf/mawvagY/o2oGO4fNq8CPnnyJHPnziU5OZnKykqOHz/O+vXraW1tJSAgoNuBFxXDvxEVw/1TMWzzMcmf/vQn6d/jx48nISGBhISEHu9HVAyLiuGuerNi2O7HJNYSFcOiYrir3qwYtvmVpLeIimFRMdxXFcODtgq4JwZC1WxfGQh9762KYVEF/JAGStVsXxgofe/rimGRJBYM5qrZwdz3rgZvz600WCuGYXD3vavH5umWKfYyobQ9TQAt9MxjnyT2wp4mgBZ6pteT5Ndff+X3v/99b+/WbsTExFBQUNCj91gq5xbsm7iS9ANL5dyCfbN5kty7d4/du3fz2muvsWDBAlJSUqiurgbg73//OytXrjTYvrKykuDgYKqqqgBISUkhKCiI4OBgoqKiOHjwoNlbmCVLlhicvWtrawkKCqKxsdHi/rqWgAcFBUljDHN9gI5y7gkTJnSLRaFQGP1rr4J9sfnTrW3bttHc3ExWVha/+93vOHDgAKmpqajVambPns3evXspKyuTPmQFBQX4+vpKhXzbtm0DOkrqf/zxRzZv3szYsWMf+pbP3P42bdqEXq/v9ht35vogk8nsbgJooWdsWipvqXx65MiRzJgxgxMnTgAdX24VFhYyb9687h0ZMoSJEyeyePFi/v3vfz9yn6zdn7Ul4MLAZdNSeWvKp1999VUyMjJYvXo1P/zwA42Njbz00kvSdqdPn+bQoUPS76AAJgsVrdHT/VnTB3ubAFroGZvebllTPj116lSGDx/O2bNn0Wq1BAcHS79vUV9fz9atW9m8eTN+fn44Ojpy9OhR/vnPf5ps01xJvTX7e5gScHubAFroGZsO3K0pn5bJZMydO5ejR4/yr3/9y+BWq6mpifb2dkaMGMGwYcMoKSkhOzvbbJvmSuqt2d/DlIDb2wTQQs/Y/OlWSkoK3t7eJCUlERYWxp///GdCQ0MNyqdDQ0O5ePEiHh4eTJo0SVru7u5OTEwMW7duZd68eezZs8fihy4mJoZbt24RGRlJSkqKwa2bNfuLioqiuLiYuXPnSk+3LPWhazl3J1tOAC30jCiV7ye2mABa6BlRKm9j9jQBtNAzNr/dEgR7J5JEECwQSWKEKGsXuhJJYoQoaxe6EqXyDxBl7cKDxJXkAaKsXXiQzR8Bd86O/sMPP/Djjz/i6enJ2rVrpXqplJQU/vOf/yCTyXBzc2PevHm8/vrr0uyFxmZXb2hoMDrbOWBxZvP+mKVcGFhsniTQMc3/li1bUCgU/OMf/0ClUvHXv/6VUaNGWVUKf+LECbZs2YKPjw8VFRUsX76cXbt2oVAoKCsr49SpU1KSiLJ2oad6JUkyMzO7zawRFBQk/fv1119nxYoVJt+/cOFCfH19gY6yj8LCQs6cOSPNYA7dS9e7Jknn7OpgfLbzznl6O8vaP//8c2nqz9jYWBYsWMD169elSZsFoSubzyoPHfPYPvi6trYWsK50vevs6uZmOxdl7cLDsIvbrc4Pb9fXM2bMsLoUvuvs6mB6tnNR1i48DLt4upWXl8fFixe5e/cun332GbW1tcycOfOhSuHNzXYuytqFh2EXV5I//OEPaDQa6enWtm3bpMFzZ+n67du3USgUzJo1i8uXL5vcl6XZzi3NbN4fs5QLA4vNS+Wjo6N57bXXCAkJ6Zf2rCHK2gcnUSrfA6KsXejKLsYkgmDPbH4l0Wg0tg5BEMwSVxJBsEAkiSBYIJJEECwQSSIIFpgcuKenp/djGIJge6Zm+Df2ZeJ0YEOfRiMI9usssNPWQQiCIAiCIAiCIAiCYKX/AZ75HGen5SLAAAAAAElFTkSuQmCC;" vertex="1" parent="1">
                    <mxGeometry x="170" y="17" width="201" height="132" as="geometry"/>
                </mxCell>
                <mxCell id="67" value="" style="shape=image;verticalLabelPosition=bottom;labelBackgroundColor=default;verticalAlign=top;aspect=fixed;imageAspect=0;image=data:image/png,iVBORw0KGgoAAAANSUhEUgAAANkAAAEtCAYAAACFysXNAAAABmJLR0QA/wD/AP+gvaeTAAAgAElEQVR4nO2de3RTZb73P0mFUu4LaUspIOXS1yLMQIsooNhyG15UGO6DsFxn1nQsoIJwkMsaQVvGaVFnBDnDCFbeUUZH31JEUEARKFM8XhlRsKdykQoU0FYBxdZWaM4fT5LupGl20nYnO+nvs1YWyX725fuU57ufS36/bBAEQRAEQRAEQRAEQQhTLB62DQUWBVqIINTDe8Bfgi2iMVg9bOsOTA20EEHwwK2om35Ic52XsmkBUyEInskLtoCmwFNPJghCEyImEwSDEZMJgsGIyQTBYMRkgmAwZjPZbsDm9todVEV10Wr8Afhv4I6gKhJMjdlMBrAW9SW54zUuuHI84tAYDxwCtgMxQVUkmBYzmqw+DgOPAwWoHuQ3wBuoHqUGOAU8gmsUy2FUtEAhcAUoAm4B/hM4C1wGNuL6d2iLMtFXwCX7NW6oR9P3wFKgHbVfmnrSGQO8DHwDfA28AHTSnKe9/ZqngIvABqCNj3rm24/70V7PZB/L9DR5qofQRExHNdxgsBtYU0/ZYeA8MAyIcCuLAAYBx4F73I45BaSgGusmlDE2ohpUX/s5tV+8bwV2Agmoxv8U8G9qjeiusTXK5BO96CwA3gS6oiJq9tk/O3gdZYJ+QEfgPuAuH/QkAtXAcKAVKkLiSftx3sp80eTt7x0o8giTL6TdCbbJ3Odkv7aXHQb+oHP8fOAVzefDwELN51SUIdpotv0DyLa/72a/ZldNuRXV4w3QaHSYzNEDfQ/E1qOzl/2cPTXb+tu3xQE97O/7eKiPnp4EVA89oO6hXsv0NHmqRzAIC5OZcbjoPifbpik77bbvNNRd/QqqgaxFNUwtZZr3PwEVqOGTdluU/X2C/d9Sak1+DWWmnppjFtjLzqGGn79GDbk86ewOXAVKNNtOaMp62q9xkrro6TkFzET1UB+jeupf2o/xVqanyVM9hAZiRpN5Q9vDxgL/BLJQd18rqtfyFo+px1eonq4zrka3ADs0+zluBG1Rw7B9XnSesWvqodnWR1NWghqO9W6gnh2oxaEhdh3/Qg1hvZXpafJUD6GBhJrJtERRO3SqRjX2hV6P0Oc0aqXw76g5TWvgZuA1ILKB5/wS1bj/iroZdAeeAXah5jynUYsZm4AkoAPwe9ScTE/PGOBPKIO0QJnV8XfxVqanSWhCQtlkJcASVG/2PWoVcWsTnPdeoBjV4L4B1qEaeVUjzjkDNaT9DLXkX2q/joPZwBHgLZQBUoD9Pug5gFpx3IValVyImlNf0SnzRZNgIMFc+BAELbLwIQiCPmIyQTAYMZkgGIyYTBAMRkwmCAYjJhMEgxGTCYLBeAtBmh4wFYLgmW6olKSQxpvJXg2YCkGony3BFtBYvJnM0094C0IgCfloD5A5mSAYjphMEAxGTCYIBiMmEwSDEZMJgsGIyQTBYMRkgmAwYjJBMBgxmSAYjJhMEAxGTCYIBiMmEwSDEZMJgsGIyQTBYMRkgmAwYjJBMBgxmSAYjJhMEAxGTCYIBiMmEwSDEZMJgsGIyQTBYMRkgmAw3n53UZ62KZiBsP5x0xkBUyEInlkYbAFNgTeT/f+AqRAEz0wLtoCmQOZkgmAwYjJBMBgxmSAYjJhM8IU04H3N553A1CBpCTnEZIIvZNtf2s+PI4/X8gkjTNYFuOrH/rtR38lpX7sN0NUYtBp/AP4buCOoigLHIKAPqvdyUAi0BEYHRVGIYZaebC3qruh4jQuuHI84NMYDh4DtQExQFQWGycBe4Ge37W/bywQdzGKy+jiMGpYUoHqQ3wBvoHqUGuAU8Aiuw5bDwF9Qd9srQBFwC/CfqOcPXwY24lr3tigTfQVcsl/jhno0fQ8sBdoBQ73ojAFeBr4BvgZeADppztPefs1TwEVgA9DGRz3z7cf9aK9nso9lepo81eNW+3Z3/m0vExrAdBoXUtWQ4eKaesoOA+eBYUCEW1kEaihzHLjH7ZhTQAqqsW5CGWMjqkH1tZ9T+0XnVtRwKAHV+J9CNSKHEd01tkaZfKIXnQXAm0BXoDuwz/7ZwesoE/QDOgL3AXf5oCcRqAaGA61QDf1J+3HeynzR5KkeRUA6dZmEMqqR5BEmj7R1pyEm+zt151Xa1x+9HOtpTvZre9lh4A86154PvKL5fBjXcJxUlCHaaLb9g9qJfDf7Nbtqyq2oHm+ARqPDZI4e6Hsgth6dvezn7KnZ1t++LQ7oYX/fx0N99PQkoHroAXUP9Vqmp8lTPUBM1miaarj4H9TOp+KAa7jOsR7ROd59TrZNU3babd9pqLv6FVQDWYtqmFrKNO9/AipQwyfttij7+wT7v6XUmvwaykw9NccssJedQw0/f41rI9Pq7I7qzUs0205oynrar3GSuujpOQXMRPVQH6N66l/aj/FWpqfJUz1A1Tfag84Ye5mgg9nnZODaq8YC/wSyUGa2onotbzGYenyF6uk642p0C7BDs5/jRtAWNQzb50XnGbumHpptfTRlJajhWO8G6tmBWhwaYtfxL9QQ1luZniZP9QD1/dhADzqTgQ88bBfcCAWTaYmiduhUjWrsjY3UPo1aKfw7ak7TGrgZeA2IbOA5v0Q17r+ibgbdgWeAXag5z2nUYsYmIAnoAPweNSfT0zMG+BPKIC1QZnX8XbyV6Wmqj9eAkdS9kY1BzR0FHULNZCXAElRv9j1qFbEp/qPvBYpRDe4bYB2qkVc14pwzUEPaz1BL/qX26ziYDRwB3kIZIAXY74OeA6gVx12oVcmFqHn0FZ0yXzR54hBqWDtes+021NDzHd2/guCRxq4uCuHHSFzDqt4kMGkoYbHw0Zi5jNB82Ifrd2J3BktIKBJqw0VBCDnEZEJTIxH7bojJhKZGIvbdMEMUvj9IxL65kYh9D4RiTyYR++ZFIvY9EIomqw+J2JeI/ZAh0FH4emij7yViv3lF7IfF92SeCHQUfm9UQ/kO1eAfB/4P6k79e2CZZl+J2Hcl3CP2w8JkZojCvwc1FOmJMkxbVHhRCTACZWAtErFfi0TshwBmiPhYpXn/KaqBLmjguTxF7E9FTcav2M/7mwaeG2oj5GOAb73stxZ4yEed2uh4R6PVRsc7An17U9vQ/dGzw/6yom5o/0LdCCu8lOlp8lQPkIh9j4TTwoc7ErEvEfumIJxNVoJE7EvEvkmRKHyhMTRlxH5YLHyYYU4mhBcSse9GOA8XBcEUiMkEwWDEZM0PSUUJMGKy5oekogSYUEt1MTOhkIYjqShBQHqypsXsaTiSihIEzGCyw6jIg0LUl8b/RkWGa8tDITVEr45mSMORVBSTEOhUl8OoCPxUlDmWohpQtKY8FFJDQiENJ5i/a98QwuLLaE8EOtXF0ZNpKUIZw1Fu9tQQCI00HDFZEDBDqguoeDz3z9qUFLOnhjgwexqOpKIEATPMyaC2gTjohZp3ODD7wxx8wQwPzpBUlCBgFpPNQf2iUztgMeqO/lo9+5oxNcRfgpWGI6koQcAsJtuIWn07B8xCBZWWednfjKkh/lBCcNJwJBXFJAQ61eUwyhRCYAjWwyMaQlgsfEiqS/NDUlECjFmGi4IQtpihJ/O02iUIYYP0ZMbwPp6/9PUHSUkJE8Rk5kVSUsKEcEh1+RgVcaJFG+JUgVrqnxVATe540ugNSUkJI8K5J3OEOHUGngNeRMU4hgKSkhJGmMFk8ag79veoANYHUT1QZ3u5t/SNV1BfNP8/+zHaOYyDClR0iA3X4N7GpLycxbVHcQTndvRw/fo0eju/pKSEEWYw2auo8KLeqNAn9y+mX0SldaSi4hWLUeFBVlRe1iHgt6hey1MDbA3cj2rgH/t43kRUmshs4HrgYVRwcEPwpFHv/PF4jnj5BtcoeyFECWSqSx9cey1QEQmObb6kb+jNyWyosCLtl66NSXkB/Z7MfXXRXaPe+UMtJcUowiLiI9ipLvGoxlau2aZNe/H1KSqecMzJYlBR6I9SmzDZmJSXpkDv/JKSEkYEe7hYipobaXuyXpr3vqRv1OhcowzVK/QGfufHeb2ltVRSm8cF+o+q9aTR2/klJSWMCLbJTgDvoaLFo1EG03435Ev6xnngF3iPXrmEmgP9AbUM3piUF1CLEr9FDQ9vAFbr1NNdo975JSUlzAn0b3x0R6VmfA/8DyqfzIYauoHKMXsSlaJxBXWXn6g5frj9uJ+pXbnz9HsbbVG9WoYP522JSkU5jlqdPEztTwmAuhn8C7UyeASYi/c5mbtGvfM7zjFB8/k24BjBvzEGkrCYk3ki2E91GY/6YZ3mTiilpBhFWJjMDAHCM1A939uoHmI1rj8o01yRlJQwwQxDj3dQd+ivUF8I70P9tqAghAVm6Mm+pXHPcRYEU2OGnkwQwhoxmSAYjJhMEAxGTCYIBuNt4SPkv58QQp5b8Zy+FFK4P2EEVKRFh0ALCTdSUlJGXL16taKioqIi2FpCmLOosLv3gi1EMCGpqam2tLS06cHWIQQfmZMJgsGIyQTBYMRkgmAwYjJBMBgxmSAYjJhMEAxGTCYIBiMmEwSDEZMJgsGIyQTBYMRkgmAwYjJBMBgxmSAYjJhMEAxGTCYIBiMmEwSDEZMJgsGIyQTBYMRkgmAwYjJBMBgxmSAYjJhMEAxGTGZuWgAvAD8AR4OsRWggZnh0klA/E1HPsu4GXA6yFqGBSE8WXPSerz0Q+AAxWEgjJjM3HYCqYIsQGoeYzLy8ATwAZAA24I/27YeBx4EC1FztN/Z9bUANcAp4BLBoznUY+AtQCFwBioBbUI8NPovqKTfi2h7aAmtRjxm+ZL/GDT5qPwz8yX6974F/A8Pdyt3rEAO8DHwDfI2ai3bSHNPerucUcBHYALTxUet8+3E/2jUl+1imp8lTPYRA4eNv4esNF/8LeNZt22HgPDCMug8MiQAGAceBe9yOOQWkoBrkJlTj34hqNH3t55ymOWYrsBNIQDXwp1Bm8eXGfBj4Dki1H7sUZeRoL3UoAN4EugLdUc8Of1NzztdRJugHdATuA+7yQWsiUI0yeSvUk2KetB/nrcwXTd7+LwSj8WKyv6N6nfpef9TsW5/J/qBz+fnAK27HLNTKQ/V6bTTb/gFk2993s2vpqim3oowyQOfajuv9yW1bEcoYjnJtHXrZr9dTs62/fVsc0MP+vo+Ha+lpTUD13p50eyvT0+SpHh6R4WLg+Q/UUM6C+s+6pvlsQQ319Djt9nka6s59BdUI1qIan5YyzfufgArUEEm7Lcr+PsH+bym15r+G6iV6+qAP4EsPn7WatHXojurRSzTbTmjKetqvf9LDdfS0ngJmonqoj1G9+C/tx3gr09PkqR4eEZOFJjbN+1jgn0AWyrRWVK/VmK9nvkL1dJ1xvQFYgB0+niPB7XMv1PzPgbYOZ1B6e2i29dGUlaCGY70bqHUHMA4Yghry/QtorVOmp8lTPTwiJgt9oqgdHlWj5hULvR6hz2lgO2pom4hqdDcDrwGRPp5jDnAH0A5YjOrFXqtn3y9RjfuvqBtFd+AZYBdqznMatZixCUhCrbr+HjUn09M6BjV07YP6cj+C2r+ZtzI9TT4jJgt9SoAlqN7se9Qq4tYmOO+9QDGqUX0DrEM1ZF+/UtiIWnk7B8wC7sR1yOrODNRw9zPgEGr4d6+mfDZwBHgLZYAUYL8PWg+gVhx3oVYlFwLT7dfyVuaLJiGYNPMnbR5GmUJAejJBMBwxmeAvPan/64e/B02ViZEAYcFfSnCNJvHEwADoCBmkJxMEgxGTCYLBiMkEwWDEZIJgMGIyQTAYMZkgGIyYTBAMRkxmIBaLRRL5BDGZEaSmpva32WzVNpvtxmBrEYKP3jf3gp+kpqZeB7wP9LLZbG0sFktKQUGB/GZiM0Z6sqZnGSpNfYTFYvkQeDElJaVFkDUJQURM1oSMGDEiCfWbD38oKCg4arFY0oEb27VrtyTI0oQgIhPzJiI1NfU6i8XyBnA+Ojr6vqKiIltJScm3PXv2rLLZbFk33HDD61999dU3wdYpBB7pyZqOZcAvIiIifpeXl3fNsbGgoOAvFovlQ6vV+oIMG5snYrImQDtM3Lt3b5FbcY0MG5s3MlxsJJ6Gie77yLCxeSM9WSOx2Wz/F7jZZrP9STtMdCcqKmqdxWKpjIiIeDiA8gQTICZrJAcOHHgTOGixWDK9zbkqKysfBlpZrdacwKkTzICYrPHozrl05mxCmCNzsibA25zLlzmbEN5IT9ZEeFmq97i0LzQfxGRNR51howwTBZDhYpPiNmx802q1Po8ME5s90pM1MdHR0U9bLJZDVqv1AOq5V7+VYWLzxp9Ul6HAIqOEhBPt27dvN2jQoNFnz579/OTJk8eCrSdEeA/1sIywwx+TTQdeveOOO4zSIjRTioqKKCsr24Lr43TDBr9/pvuxxx4zQIbQnHnsscc4cOBAsGUYhszJBMFgxGSCYDBiMkEwGDGZIBiMmEwQDCZkHgJYXFzM5s2bOXr0KFVVVcTHxzN69GgmT55MZGRko8+fkZHBpEmTGDduXBOorZ8lS5bw0UcfuWy7+eabeeKJJwy9rhA8QsJkH374IY888giTJk1i7ty5REdHc+7cOfbu3ct7771HampqsCX6xZQpU3jggQeCLUMIEKY3mc1m4+mnn2b8+PHMnTvXuT0hIYH09HTn5+XLl/P+++9jsViIjY1l/PjxzJ49G4tFfd+enp7OrbfeymeffcbJkyeJj49n/vz59O/fn6ysLI4dO8bq1atZvXo1SUlJrF+/nmnTprFs2TJSUlIAKCsrY/r06ezYsYO2bds6z3n06FGOHTvG4sWLGTp0KLm5uRw8eJAff/yRAQMG8NBDDxEbG6tbV0/n27Nnj269kpOTKS4u5vjx48TGxrJ06VKOHDlCXl4eFRUVjBw5kkWLFjmPqaysbLBGwX9Mb7LTp09z4cIFxo4d63W/7OxsAGpqajh58iSZmZl07dqVUaNGOffZvn07WVlZJCYm8vrrr7N06VJeeuklVq5cSWlpaYOGi7t27SIrK4ukpCSsVisrV66kurqaNWvW0KFDB1544QVWrFjBhg0bnI3cn/ONHDlSt16FhYVkZmbSvXt31q1bx+LFixk5ciSbNm3i8uXLLFiwgJSUFGePn52d3SiNgn+YfuHj0qVLAHTu3Nmn/a1WK3379mXy5Mm8++67LmUTJkxg4MCBtG7dmpkzZxIdHc3BgwcbpW/SpEncdNNNWK1WysrKKCws5OGHHyYuLo7WrVszZ84cSktLOXXqlPOY/Px80tLSnC+tBu35fK3X5MmTSUxMJCoqirFjx1JZWcn9999Pu3bt6NatG8nJyRw/fhzAZ41C02H6nqxjx44AlJeXExMTU+9+BQUFvPzyy5w5c4affvoJgP79+7vsExcXV+dzWVlZo/RpNZ0/fx6AqVOn1tnvwoUL9OrVC/A+J3Ovoy/1cvyNAFq2bElkZCStWrVy2VZVVeWXRqHpML3JevToQZcuXdizZw/9+vXzuM/FixdZtWoVmZmZJCcnExUVRX5+Pvv27XPZz9HAtJ+HDx8OUKfnAIiMjHQ2TqjtVbVoh1ddunTBYrGwbds22rdv73sl6zmfr/Xyh6bQKPiH6YeLFouFhQsXsnPnTjZu3MjZs2epqqqipKSE3NxcCgoKqKqqwmaz0aZNG1q0aEFRURF5eXl1zrV9+3Y+/fRTKioqePXVVykrK+O2224DoFOnTnz55Zdcu1ab+tWnTx92797NlStX+Prrr9mwYYNXrTExMQwfPpycnBynzuLiYlasWMHPP//sd919rZc/NLVGQR/T92QAQ4YMYe3atWzevJl58+ZRXV1NfHw8Y8aMYejQoURGRpKRkcGqVav44YcfSExMZMSIEXz++ecu57n77rvJzc11ri5mZ2c7h1ozZ87kySefZOvWrSQmJrJ+/XoyMjLIyclh6tSpdO3alYkTJ3Lo0CGvWpcvX86LL77IkiVLuHjxIgkJCcyaNYsWLfz/he4uXbr4VC9/aUqNgj5+55Pt37/fKC2Gkp6ezowZMxgzZkywpQhu2FNdwjafzPTDRUEIdcRkgmAwITEnawpyc3ODLUFopkhPJggGIyYTBIMRkwmCwYjJBMFg/F74KCgoMECG0JxpbPxoODEdsMlLXga9GhcvZmL87slCNeJDMC/y46aCIDQKMZkgGIyYTBAMRkwmCAYjJhMEgxGTCYLBiMkEwWDEZIJgMGIyQTAYMZkgGIyYTBAMRkwmCAYjJhMEgxGTCYLBiMkEwWDEZIJgMGIyQTAYMZkgGIyYTBAMRkwmCAYjJhMEgxGTCYLBiMkEwWD8/t3FtLQ0I3QIQtjit8keffRRI3QIzZi8vDyKioqCLcMw/DZZamqqATKE5ky4P19B5mSCYDBiMkEwGDGZIBiMmExw8sknnzBv3jzn52XLloX101YChZhMcPLcc88xa9Ys5+d77rmH3NxcbDZbEFWFPn6vLjaU7777jmnTprF3716fjykuLmbz5s0cPXqUqqoq4uPjGT16NJMnTyYyMrLRmjIyMpg0aRLjxo1r9Lm8sWTJEj766COXbTfffDNPPPGEodf1h+PHj1NaWsott9zi3PaLX/yCq1evcujQIQYPHhxEdaFNwEzmLx9++CGPPPIIkyZNYu7cuURHR3Pu3Dn27t3Le++9F3JfJUyZMoUHHngg2DLqpbCwkOTkZK67zrVJDB48mMLCQjFZIzClyWw2G08//TTjx49n7ty5zu0JCQmkp6c7Py9fvpz3338fi8VCbGws48ePZ/bs2VgsFgDS09O59dZb+eyzzzh58iTx8fHMnz+f/v37k5WVxbFjx1i9ejWrV68mKSmJ9evXM23aNJYtW0ZKSgqgnmc8ffp0duzYQdu2bZ3nPHr0KMeOHWPx4sUMHTqU3NxcDh48yI8//siAAQN46KGHiI2N1a2rp/Pt2bNHt17JyckUFxdz/PhxYmNjWbp0KUeOHCEvL4+KigpGjhzJokWLnMdUVlZ61VhUVMSgQYPq6EtMTGT79u0N/J8UwKQmO336NBcuXGDs2LFe98vOzgagpqaGkydPkpmZSdeuXRk1apRzn+3bt5OVlUViYiKvv/46S5cu5aWXXmLlypWUlpY2aLi4a9cusrKySEpKwmq1snLlSqqrq1mzZg0dOnTghRdeYMWKFWzYsMHZyP0538iRI3XrVVhYSGZmJt27d2fdunUsXryYkSNHsmnTJi5fvsyCBQtISUlx9vjZ2dleNZaXl9OxY8c62jp27Eh5eblffx/BFUMXPnJyckhLSyMtLY0pU6ZQU1Pj/JyWlsbzzz/v8bhLly4B0LlzZ5+uY7Va6du3L5MnT+bdd991KZswYQIDBw6kdevWzJw5k+joaA4ePNioek2aNImbbroJq9VKWVkZhYWFPPzww8TFxdG6dWvmzJlDaWkpp06dch6Tn5/vUnetBu35fK3X5MmTSUxMJCoqirFjx1JZWcn9999Pu3bt6NatG8nJyRw/fhzAZ42CMRjaky1btoxly5YB/i18OO6o5eXlxMTE1LtfQUEBL7/8MmfOnOGnn34CoH///i77xMXF1flcVlbmVz3c0Wo6f/48AFOnTq2z34ULF+jVqxfgfU7mXkdf6qXtdVq2bElkZCStWrVy2VZVVeWzxuuvv955c9Ny6dIln292gmdMOVzs0aMHXbp0Yc+ePfTr18/jPhcvXmTVqlVkZmaSnJxMVFQU+fn57Nu3z2U/RwPTfh4+fDhAnZ4DIDIy0tk4AY8NTzsE7NKlCxaLhW3bttG+fXvfK1nP+Xytlz/4orFfv36cOHGizvZjx46RlJTU4GsLJv2ezGKxsHDhQnbu3MnGjRs5e/YsVVVVlJSUkJubS0FBAVVVVdhsNtq0aUOLFi0oKioiLy+vzrm2b9/Op59+SkVFBa+++iplZWXcdtttAHTq1Ikvv/ySa9euOffv06cPu3fv5sqVK3z99dds2LDBq9aYmBiGDx9OTk6OU2dxcTErVqzg559/9rvuvtbLH3zRePvtt/PJJ5+4/C0ADh06xIgRIxp1/eaOKXsygCFDhrB27Vo2b97MvHnzqK6uJj4+njFjxjB06FAiIyPJyMhg1apV/PDDDyQmJjJixAg+//xzl/Pcfffd5ObmOlcXs7OznUOtmTNn8uSTT7J161YSExNZv349GRkZ5OTkMHXqVLp27crEiRM5dOiQV63Lly/nxRdfZMmSJVy8eJGEhARmzZpFixYt/K53ly5dfKqXv+hpTExMpGvXrnzwwQcMGzYMgCNHjhAREeFcaRUahv7SVy3TgVf3799vlJYmJz09nRkzZjBmzJhgSwkJPvnkE5577jnWr18PqDn1uHHjDP9O8rHHHuPAgQNbgGmGXihImLYnEwLPoEGDnAYDtTosNB5TzskEIZwIa5Pl5ubKUNEgJGLfd8LaZIJxSMS+75g6Ct8fJGI/cEjEvn+ExcKHROwHFonY94+QN5lE7EvEvtkJWZPV1NRgtVolYl8i9k2PKaPwAc6dO8fKlSuZMGECM2fOJDc31xkw+8Ybb/DKK68AErHvS70kYj+4mDIKH+Cdd97hV7/6FcuWLeP8+fPs3LmThQsXcvXqVYYMGcKcOXMAidiXiH3zY9rh4r333ut837t3bx588EEefPDBOvtJxL5E7JudkP+eTCL2JWLf7Ji2J/MHidiXiH0zE9ZR+P4gEfv+0ZQR+xKFLwgekIh93wn5OZkgmB3pyezk5uYGW4IQpkhPZgDp6ens2bMn2DJ8RtJWjEVM5gPz5s3jzTffDLYMw5C0FWMJmMm+++47l3g6o8nIyGD37t0u25YsWeIMVRo1ahQzZsxg06ZNuo1p/fr13HnnnYZqCxZ6aStC42l2PdmUKVPYv38/b7/9NitWrCA/Pz+seyk99NJWhMZj2oWP8vJynnrqKY4cOUJ0dDQTJkxg3bp1bNu2jQ4dOnhNx6gvNUVLREQE/fv3JykpySXw1VM6yZYtW7jzzg60FzQAAAOESURBVDudvZmeNoAzZ86waNEivvjiCzp16sSCBQsYPHhwvdrS09MZNmwYR48erXMM6KefbN26lby8PC5evEhiYiIPPvggffv21S2TtBXjMa3JMjMziYmJ4aWXXqKyspKsrCyXcm/pGL6kply7do0vvviC4uJi7r77bpcy93SSLVu2+KUN4K233iIzM5OEhATy8vJ4/PHH2bp1q1dt9R1jsVi81re0tJS//e1vPP300yQmJnLixAn27t1L3759OXv2bL1lgKStBABDTZaTk8Nbb73lsi0tLc35fvbs2fzud7+rc1xpaSlHjx519gwdO3bkvvvuY9GiRUBtOsaWLVu4/vrrAZgzZw533XUXp06dckazeyI/P5/8/Hzn59GjRzvjEx040kk8oafNwdSpU7nxxhsBmDhxIs8//zzffvut1yj1+o6x2Wxe6xsVFcV1111H69atadmyJf369XMGS0dERNRbJgQGU6a6lJeXExUV5Rx6gWsaiq8pI55wpJHYbDYuXLhATk4OTzzxBMuXL3fu4y1lRk+bA23v4PiNEW3EvifqO+bbb78F6q/vsGHDWLFiBc8++yyXL1+md+/eTJkyhd69exMXF1dvGSBpKwHAlMPFzp07U1lZyeXLl52NWZuG4ks6hqfUFC0Wi4W4uDhGjRrFs88+62IybxnKetp8QU+bO77Ud9iwYQwbNgybzcY777zD/Pnz2bp1K5GRkV7LJG3FeEy5uhgfH89NN93EM888w6VLlzh//jwbN250lvuSjuEpNUWLoyfbt2+f867eFNp8QU+bO3r1/fjjj8nNzaW0tJSrV69SU1NDdXU1NTU1XstA0lYCgSl7MoCVK1fy5z//mVmzZtG5c2fGjx9PcXGxM91CLx3DU2oK1M7JLBYLHTp0YODAgS4/wNMU2vSoT5s3vNV34MCBnDhxgqVLl1JeXk63bt149NFHiYqK8loGkrYSCEIm1eWDDz7g8ccfN+Wyspm1+UKwHjThQFJdgsT+/fuJiIhg8ODBnD9/ng0bNjh/mSnYmFlbQ5C0FWMxrclSUlJYs2YNTz31FK1ateL222/nvvvuC7YswNzaBPNhWpO1b9+elStXBluGR8ysTTAfplxdFIRwQkwmCAYjJhMEgxGTCYLB+L3wUVBQYIAMoTnT2J9CDyemAzZ5ycugV+N++lgQBEEQBEEQBEEQBEEIPP8LDykRTY8qBKgAAAAASUVORK5CYII=;" vertex="1" parent="1">
                    <mxGeometry x="425" y="-167" width="217" height="301" as="geometry"/>
                </mxCell>
            </root>
        </mxGraphModel>
    </diagram>
</mxfile>